<?xml version="1.0" encoding="UTF-8" standalone="no"?>
<svg
   xmlns:dc="http://purl.org/dc/elements/1.1/"
   xmlns:cc="http://creativecommons.org/ns#"
   xmlns:rdf="http://www.w3.org/1999/02/22-rdf-syntax-ns#"
   xmlns:svg="http://www.w3.org/2000/svg"
   xmlns="http://www.w3.org/2000/svg"
   xmlns:sodipodi="http://sodipodi.sourceforge.net/DTD/sodipodi-0.dtd"
   xmlns:inkscape="http://www.inkscape.org/namespaces/inkscape"
   width="512"
   height="742.40002"
   viewBox="0 0 135.46666 196.42668"
   version="1.1"
   id="svg8"
   inkscape:version="1.0.2 (e86c870879, 2021-01-15)"
   sodipodi:docname="fascist-inkscape.svg">
  <defs
     id="defs2">
    <rect
       x="23.412383"
       y="116.13604"
       width="94.384343"
       height="38.73296"
       id="rect3838" />
    <rect
       x="23.111174"
       y="77.267066"
       width="85.956882"
       height="28.910756"
       id="rect3828" />
    <inkscape:path-effect
       effect="skeletal"
       id="path-effect1722"
       is_visible="true"
       lpeversion="1"
       pattern="m -4.263133,3.0588241 h 1.0767444"
       copytype="repeated"
       prop_scale="16"
       scale_y_rel="false"
       spacing="0"
       normal_offset="0"
       tang_offset="0"
       prop_units="false"
       vertical_pattern="false"
       hide_knot="false"
       fuse_tolerance="0" />
    <marker
       style="overflow:visible"
       id="Arrow1Lstart"
       refX="0.0"
       refY="0.0"
       orient="auto"
       inkscape:stockid="Arrow1Lstart"
       inkscape:isstock="true">
      <path
         transform="scale(0.8) translate(12.5,0)"
         style="fill-rule:evenodd;stroke:#ffffff;stroke-width:1pt;stroke-opacity:1;fill:#ffffff;fill-opacity:1"
         d="M 0.0,0.0 L 5.0,-5.0 L -12.5,0.0 L 5.0,5.0 L 0.0,0.0 z "
         id="path1440" />
    </marker>
    <rect
       x="15.242886"
       y="62.757416"
       width="95.425515"
       height="47.220228"
       id="rect1432" />
  </defs>
  <sodipodi:namedview
     id="base"
     pagecolor="#ffffff"
     bordercolor="#666666"
     borderopacity="1.0"
     inkscape:pageopacity="0.0"
     inkscape:pageshadow="2"
     inkscape:zoom="1.28"
     inkscape:cx="181.24256"
     inkscape:cy="349.68502"
     inkscape:document-units="px"
     inkscape:current-layer="layer1"
     inkscape:document-rotation="0"
     showgrid="false"
     units="px"
     inkscape:window-width="1872"
     inkscape:window-height="1027"
     inkscape:window-x="1920"
     inkscape:window-y="24"
     inkscape:window-maximized="1"
     inkscape:pagecheckerboard="true" />
  <metadata
     id="metadata5">
    <rdf:RDF>
      <cc:Work
         rdf:about="">
        <dc:format>image/svg+xml</dc:format>
        <dc:type
           rdf:resource="http://purl.org/dc/dcmitype/StillImage" />
        <dc:title></dc:title>
      </cc:Work>
    </rdf:RDF>
  </metadata>
  <g
     inkscape:label="Layer 1"
     inkscape:groupmode="layer"
     id="layer1">
    <rect
       style="opacity:0.999;fill:#ffffff;fill-opacity:1;stroke:none;stroke-width:1.77606;stroke-linecap:butt;stroke-linejoin:round;stroke-miterlimit:4;stroke-dasharray:none;stroke-dashoffset:0;stroke-opacity:0.32373"
       id="rect2029"
       width="135.46666"
       height="196.42667"
       x="0"
       y="0" />
    <rect
       style="opacity:0.999;fill:#a35c2f;fill-opacity:1;stroke:none;stroke-width:4.29274;stroke-linejoin:round;stroke-miterlimit:4;stroke-dasharray:none;stroke-opacity:1"
       id="rect3834"
       width="116.41666"
       height="177.37666"
       x="9.5249996"
       y="9.5249996"
       rx="8.6094465"
       ry="8.5615826" />
    <path
       id="rect1402"
       style="opacity:0.999;fill:#ffffff;fill-opacity:1;stroke:none;stroke-width:1.06631;stroke-linejoin:round;stroke-opacity:1"
       d="M 93.133332,19.05 116.41667,42.333333 V 177.37677 H 19.05 V 19.05 Z" />
    <path
       style="fill:none;fill-opacity:1;stroke:#a35c2f;stroke-width:4.2333333;stroke-linecap:butt;stroke-linejoin:round;stroke-miterlimit:4;stroke-dasharray:none;stroke-opacity:1"
       d="M 93.133337,42.333333 H 116.41667 L 93.133337,19.05 Z"
       id="path3300"
       sodipodi:nodetypes="cccc" />
    <g
       id="g1954"
       transform="matrix(0.91164281,0,0,0.91164281,5.9846798,6.5310178)"
       style="stroke:#a35c2f;stroke-opacity:1;fill:#a35c2f;fill-opacity:1">
      <ellipse
         style="opacity:0.999;fill:#a35c2f;fill-opacity:1;stroke:#a35c2f;stroke-width:1.75039;stroke-linecap:butt;stroke-linejoin:round;stroke-miterlimit:4;stroke-dasharray:none;stroke-dashoffset:0;stroke-opacity:1"
         id="ellipse8287"
         cx="34.514935"
         cy="133.44641"
         rx="0.71230501"
         ry="0.71230429"
         transform="translate(-13.0815,-17.3096)" />
      <ellipse
         style="opacity:0.999;fill:#a35c2f;fill-opacity:1;stroke:#a35c2f;stroke-width:1.75039;stroke-linecap:butt;stroke-linejoin:round;stroke-miterlimit:4;stroke-dasharray:none;stroke-dashoffset:0;stroke-opacity:1"
         id="ellipse9896"
         cx="34.514935"
         cy="133.44641"
         rx="0.71230501"
         ry="0.71230429"
         transform="translate(-6.90818,-17.2981)" />
      <ellipse
         style="opacity:0.999;fill:#a35c2f;fill-opacity:1;stroke:#a35c2f;stroke-width:1.75039;stroke-linecap:butt;stroke-linejoin:round;stroke-miterlimit:4;stroke-dasharray:none;stroke-dashoffset:0;stroke-opacity:1"
         id="ellipse8817"
         cx="34.514935"
         cy="133.44641"
         rx="0.71230501"
         ry="0.71230429"
         transform="translate(-0.734851,-17.2867)" />
      <ellipse
         style="opacity:0.999;fill:#a35c2f;fill-opacity:1;stroke:#a35c2f;stroke-width:1.75039;stroke-linecap:butt;stroke-linejoin:round;stroke-miterlimit:4;stroke-dasharray:none;stroke-dashoffset:0;stroke-opacity:1"
         id="ellipse9201"
         cx="34.514935"
         cy="133.44641"
         rx="0.71230501"
         ry="0.71230429"
         transform="translate(5.43847,-17.2752)" />
      <ellipse
         style="opacity:0.999;fill:#a35c2f;fill-opacity:1;stroke:#a35c2f;stroke-width:1.75039;stroke-linecap:butt;stroke-linejoin:round;stroke-miterlimit:4;stroke-dasharray:none;stroke-dashoffset:0;stroke-opacity:1"
         id="ellipse2384"
         cx="34.514935"
         cy="133.44641"
         rx="0.71230501"
         ry="0.71230429"
         transform="translate(11.6118,-17.2637)" />
      <ellipse
         style="opacity:0.999;fill:#a35c2f;fill-opacity:1;stroke:#a35c2f;stroke-width:1.75039;stroke-linecap:butt;stroke-linejoin:round;stroke-miterlimit:4;stroke-dasharray:none;stroke-dashoffset:0;stroke-opacity:1"
         id="ellipse8677"
         cx="34.514935"
         cy="133.44641"
         rx="0.71230501"
         ry="0.71230429"
         transform="translate(17.7851,-17.2523)" />
      <ellipse
         style="opacity:0.999;fill:#a35c2f;fill-opacity:1;stroke:#a35c2f;stroke-width:1.75039;stroke-linecap:butt;stroke-linejoin:round;stroke-miterlimit:4;stroke-dasharray:none;stroke-dashoffset:0;stroke-opacity:1"
         id="ellipse9874"
         cx="34.514935"
         cy="133.44641"
         rx="0.71230501"
         ry="0.71230429"
         transform="translate(23.9584,-17.2408)" />
      <ellipse
         style="opacity:0.999;fill:#a35c2f;fill-opacity:1;stroke:#a35c2f;stroke-width:1.75039;stroke-linecap:butt;stroke-linejoin:round;stroke-miterlimit:4;stroke-dasharray:none;stroke-dashoffset:0;stroke-opacity:1"
         id="ellipse5653"
         cx="34.514935"
         cy="133.44641"
         rx="0.71230501"
         ry="0.71230429"
         transform="translate(30.1318,-17.2293)" />
      <ellipse
         style="opacity:0.999;fill:#a35c2f;fill-opacity:1;stroke:#a35c2f;stroke-width:1.75039;stroke-linecap:butt;stroke-linejoin:round;stroke-miterlimit:4;stroke-dasharray:none;stroke-dashoffset:0;stroke-opacity:1"
         id="ellipse7314"
         cx="34.514935"
         cy="133.44641"
         rx="0.71230501"
         ry="0.71230429"
         transform="translate(36.3051,-17.2179)" />
      <ellipse
         style="opacity:0.999;fill:#a35c2f;fill-opacity:1;stroke:#a35c2f;stroke-width:1.75039;stroke-linecap:butt;stroke-linejoin:round;stroke-miterlimit:4;stroke-dasharray:none;stroke-dashoffset:0;stroke-opacity:1"
         id="ellipse8034"
         cx="34.514935"
         cy="133.44641"
         rx="0.71230501"
         ry="0.71230429"
         transform="translate(42.4784,-17.2064)" />
      <ellipse
         style="opacity:0.999;fill:#a35c2f;fill-opacity:1;stroke:#a35c2f;stroke-width:1.75039;stroke-linecap:butt;stroke-linejoin:round;stroke-miterlimit:4;stroke-dasharray:none;stroke-dashoffset:0;stroke-opacity:1"
         id="ellipse7030"
         cx="34.514935"
         cy="133.44641"
         rx="0.71230501"
         ry="0.71230429"
         transform="translate(48.6517,-17.1949)" />
      <ellipse
         style="opacity:0.999;fill:#a35c2f;fill-opacity:1;stroke:#a35c2f;stroke-width:1.75039;stroke-linecap:butt;stroke-linejoin:round;stroke-miterlimit:4;stroke-dasharray:none;stroke-dashoffset:0;stroke-opacity:1"
         id="ellipse695"
         cx="34.514935"
         cy="133.44641"
         rx="0.71230501"
         ry="0.71230429"
         transform="translate(54.8251,-17.1835)" />
      <ellipse
         style="opacity:0.999;fill:#a35c2f;fill-opacity:1;stroke:#a35c2f;stroke-width:1.75039;stroke-linecap:butt;stroke-linejoin:round;stroke-miterlimit:4;stroke-dasharray:none;stroke-dashoffset:0;stroke-opacity:1"
         id="ellipse9225"
         cx="34.514935"
         cy="133.44641"
         rx="0.71230501"
         ry="0.71230429"
         transform="translate(60.9984,-17.172)" />
      <ellipse
         style="opacity:0.999;fill:#a35c2f;fill-opacity:1;stroke:#a35c2f;stroke-width:1.75039;stroke-linecap:butt;stroke-linejoin:round;stroke-miterlimit:4;stroke-dasharray:none;stroke-dashoffset:0;stroke-opacity:1"
         id="ellipse2502"
         cx="34.514935"
         cy="133.44641"
         rx="0.71230501"
         ry="0.71230429"
         transform="translate(67.1717,-17.1605)" />
      <ellipse
         style="opacity:0.999;fill:#a35c2f;fill-opacity:1;stroke:#a35c2f;stroke-width:1.75039;stroke-linecap:butt;stroke-linejoin:round;stroke-miterlimit:4;stroke-dasharray:none;stroke-dashoffset:0;stroke-opacity:1"
         id="ellipse7311"
         cx="34.514935"
         cy="133.44641"
         rx="0.71230501"
         ry="0.71230429"
         transform="translate(73.345,-17.1491)" />
      <ellipse
         style="opacity:0.999;fill:#a35c2f;fill-opacity:1;stroke:#a35c2f;stroke-width:1.75039;stroke-linecap:butt;stroke-linejoin:round;stroke-miterlimit:4;stroke-dasharray:none;stroke-dashoffset:0;stroke-opacity:1"
         id="ellipse3015"
         cx="34.514935"
         cy="133.44641"
         rx="0.71230501"
         ry="0.71230429"
         transform="translate(79.5184,-17.1376)" />
      <ellipse
         style="opacity:0.999;fill:#a35c2f;fill-opacity:1;stroke:#a35c2f;stroke-width:1.75039;stroke-linecap:butt;stroke-linejoin:round;stroke-miterlimit:4;stroke-dasharray:none;stroke-dashoffset:0;stroke-opacity:1"
         id="ellipse8083"
         cx="34.514935"
         cy="133.44641"
         rx="0.71230501"
         ry="0.71230429"
         transform="translate(-13.0815,-17.31)" />
      <ellipse
         style="opacity:0.999;fill:#a35c2f;fill-opacity:1;stroke:#a35c2f;stroke-width:1.75039;stroke-linecap:butt;stroke-linejoin:round;stroke-miterlimit:4;stroke-dasharray:none;stroke-dashoffset:0;stroke-opacity:1"
         id="ellipse5492"
         cx="34.514935"
         cy="133.44641"
         rx="0.71230501"
         ry="0.71230429"
         transform="translate(-6.90819,-17.2985)" />
      <ellipse
         style="opacity:0.999;fill:#a35c2f;fill-opacity:1;stroke:#a35c2f;stroke-width:1.75039;stroke-linecap:butt;stroke-linejoin:round;stroke-miterlimit:4;stroke-dasharray:none;stroke-dashoffset:0;stroke-opacity:1"
         id="ellipse8780"
         cx="34.514935"
         cy="133.44641"
         rx="0.71230501"
         ry="0.71230429"
         transform="translate(-0.734876,-17.2871)" />
      <ellipse
         style="opacity:0.999;fill:#a35c2f;fill-opacity:1;stroke:#a35c2f;stroke-width:1.75039;stroke-linecap:butt;stroke-linejoin:round;stroke-miterlimit:4;stroke-dasharray:none;stroke-dashoffset:0;stroke-opacity:1"
         id="ellipse5313"
         cx="34.514935"
         cy="133.44641"
         rx="0.71230501"
         ry="0.71230429"
         transform="translate(5.43844,-17.2756)" />
      <ellipse
         style="opacity:0.999;fill:#a35c2f;fill-opacity:1;stroke:#a35c2f;stroke-width:1.75039;stroke-linecap:butt;stroke-linejoin:round;stroke-miterlimit:4;stroke-dasharray:none;stroke-dashoffset:0;stroke-opacity:1"
         id="ellipse3357"
         cx="34.514935"
         cy="133.44641"
         rx="0.71230501"
         ry="0.71230429"
         transform="translate(11.6117,-17.2641)" />
      <ellipse
         style="opacity:0.999;fill:#a35c2f;fill-opacity:1;stroke:#a35c2f;stroke-width:1.75039;stroke-linecap:butt;stroke-linejoin:round;stroke-miterlimit:4;stroke-dasharray:none;stroke-dashoffset:0;stroke-opacity:1"
         id="ellipse1223"
         cx="34.514935"
         cy="133.44641"
         rx="0.71230501"
         ry="0.71230429"
         transform="translate(17.7851,-17.2527)" />
      <ellipse
         style="opacity:0.999;fill:#a35c2f;fill-opacity:1;stroke:#a35c2f;stroke-width:1.75039;stroke-linecap:butt;stroke-linejoin:round;stroke-miterlimit:4;stroke-dasharray:none;stroke-dashoffset:0;stroke-opacity:1"
         id="ellipse9592"
         cx="34.514935"
         cy="133.44641"
         rx="0.71230501"
         ry="0.71230429"
         transform="translate(23.9584,-17.2412)" />
      <ellipse
         style="opacity:0.999;fill:#a35c2f;fill-opacity:1;stroke:#a35c2f;stroke-width:1.75039;stroke-linecap:butt;stroke-linejoin:round;stroke-miterlimit:4;stroke-dasharray:none;stroke-dashoffset:0;stroke-opacity:1"
         id="ellipse2537"
         cx="34.514935"
         cy="133.44641"
         rx="0.71230501"
         ry="0.71230429"
         transform="translate(30.1317,-17.2297)" />
      <ellipse
         style="opacity:0.999;fill:#a35c2f;fill-opacity:1;stroke:#a35c2f;stroke-width:1.75039;stroke-linecap:butt;stroke-linejoin:round;stroke-miterlimit:4;stroke-dasharray:none;stroke-dashoffset:0;stroke-opacity:1"
         id="ellipse3721"
         cx="34.514935"
         cy="133.44641"
         rx="0.71230501"
         ry="0.71230429"
         transform="translate(36.305,-17.2183)" />
      <ellipse
         style="opacity:0.999;fill:#a35c2f;fill-opacity:1;stroke:#a35c2f;stroke-width:1.75039;stroke-linecap:butt;stroke-linejoin:round;stroke-miterlimit:4;stroke-dasharray:none;stroke-dashoffset:0;stroke-opacity:1"
         id="ellipse9339"
         cx="34.514935"
         cy="133.44641"
         rx="0.71230501"
         ry="0.71230429"
         transform="translate(42.4783,-17.2068)" />
      <ellipse
         style="opacity:0.999;fill:#a35c2f;fill-opacity:1;stroke:#a35c2f;stroke-width:1.75039;stroke-linecap:butt;stroke-linejoin:round;stroke-miterlimit:4;stroke-dasharray:none;stroke-dashoffset:0;stroke-opacity:1"
         id="ellipse9119"
         cx="34.514935"
         cy="133.44641"
         rx="0.71230501"
         ry="0.71230429"
         transform="translate(48.6516,-17.1953)" />
      <ellipse
         style="opacity:0.999;fill:#a35c2f;fill-opacity:1;stroke:#a35c2f;stroke-width:1.75039;stroke-linecap:butt;stroke-linejoin:round;stroke-miterlimit:4;stroke-dasharray:none;stroke-dashoffset:0;stroke-opacity:1"
         id="ellipse4291"
         cx="34.514935"
         cy="133.44641"
         rx="0.71230501"
         ry="0.71230429"
         transform="translate(54.8249,-17.1839)" />
      <ellipse
         style="opacity:0.999;fill:#a35c2f;fill-opacity:1;stroke:#a35c2f;stroke-width:1.75039;stroke-linecap:butt;stroke-linejoin:round;stroke-miterlimit:4;stroke-dasharray:none;stroke-dashoffset:0;stroke-opacity:1"
         id="ellipse3178"
         cx="34.514935"
         cy="133.44641"
         rx="0.71230501"
         ry="0.71230429"
         transform="translate(60.9982,-17.1724)" />
      <ellipse
         style="opacity:0.999;fill:#a35c2f;fill-opacity:1;stroke:#a35c2f;stroke-width:1.75039;stroke-linecap:butt;stroke-linejoin:round;stroke-miterlimit:4;stroke-dasharray:none;stroke-dashoffset:0;stroke-opacity:1"
         id="ellipse2234"
         cx="34.514935"
         cy="133.44641"
         rx="0.71230501"
         ry="0.71230429"
         transform="translate(67.1716,-17.1609)" />
      <ellipse
         style="opacity:0.999;fill:#a35c2f;fill-opacity:1;stroke:#a35c2f;stroke-width:1.75039;stroke-linecap:butt;stroke-linejoin:round;stroke-miterlimit:4;stroke-dasharray:none;stroke-dashoffset:0;stroke-opacity:1"
         id="ellipse6167"
         cx="34.514935"
         cy="133.44641"
         rx="0.71230501"
         ry="0.71230429"
         transform="translate(73.3449,-17.1495)" />
    </g>
    <text
       xml:space="preserve"
       id="text3826"
       style="font-style:normal;font-variant:normal;font-weight:normal;font-stretch:normal;font-size:10.5833px;line-height:1.25;font-family:'Germania One';-inkscape-font-specification:'Germania One';letter-spacing:0px;word-spacing:0px;white-space:pre;shape-inside:url(#rect3828);fill:#a35c2f;fill-opacity:1;stroke:none;"
       transform="matrix(1.8076348,0,0,1.8076348,-3.96392,-49.86494)"><tspan
         x="23.111328"
         y="86.894871"><tspan
           style="fill:#a35c2f;fill-opacity:1">FASCIST</tspan></tspan></text>
    <text
       xml:space="preserve"
       id="text3836"
       style="font-style:normal;font-variant:normal;font-weight:bold;font-stretch:normal;font-size:9.87778px;line-height:1.25;font-family:'Droid Sans Fallback';-inkscape-font-specification:'Droid Sans Fallback Bold';letter-spacing:0px;word-spacing:0px;white-space:pre;shape-inside:url(#rect3838);fill:#a35c2f;fill-opacity:1;stroke:none;stroke-width:1.00012;stroke-linecap:round;stroke-linejoin:round;stroke-miterlimit:4;stroke-dasharray:none;stroke-opacity:1;"
       transform="translate(0.41899396,-0.66209088)"><tspan
         x="23.412109"
         y="125.03417"><tspan
           style="font-style:normal;font-variant:normal;font-weight:bold;font-stretch:normal;font-size:9.87778px;font-family:'Droid Sans Fallback';-inkscape-font-specification:'Droid Sans Fallback Bold';fill:#a35c2f;fill-opacity:1;stroke:none;stroke-width:1.00012;stroke-linecap:round;stroke-linejoin:round;stroke-miterlimit:4;stroke-dasharray:none;stroke-opacity:1">ARTICLE</tspan></tspan></text>
    <rect
       style="opacity:0.999;fill:#a35c2f;fill-opacity:1;stroke:none;stroke-width:0.709604;stroke-linecap:round;stroke-linejoin:round;stroke-miterlimit:4;stroke-dasharray:none;stroke-opacity:1"
       id="rect3846"
       width="39.6875"
       height="1.5875"
       x="71.70208"
       y="117.475" />
    <rect
       style="opacity:0.999;fill:#a35c2f;fill-opacity:1;stroke:none;stroke-width:0.709604;stroke-linecap:round;stroke-linejoin:round;stroke-miterlimit:4;stroke-dasharray:none;stroke-opacity:1"
       id="rect3848"
       width="39.6875"
       height="1.5875"
       x="71.70208"
       y="122.76666" />
    <rect
       style="opacity:0.999;fill:#a35c2f;fill-opacity:1;stroke:none;stroke-width:1.05252;stroke-linecap:round;stroke-linejoin:round;stroke-miterlimit:4;stroke-dasharray:none;stroke-opacity:1"
       id="rect3850"
       width="87.3125"
       height="1.5875"
       x="24.077084"
       y="128.05833" />
    <rect
       style="opacity:0.999;fill:#a35c2f;fill-opacity:1;stroke:none;stroke-width:1.05252;stroke-linecap:round;stroke-linejoin:round;stroke-miterlimit:4;stroke-dasharray:none;stroke-opacity:1"
       id="rect3854"
       width="87.3125"
       height="1.5875"
       x="24.077084"
       y="133.35001" />
    <rect
       style="opacity:0.999;fill:#a35c2f;fill-opacity:1;stroke:none;stroke-width:0.916103;stroke-linecap:round;stroke-linejoin:round;stroke-miterlimit:4;stroke-dasharray:none;stroke-opacity:1"
       id="rect3856"
       width="66.145836"
       height="1.5875"
       x="24.077084"
       y="138.64166" />
    <rect
       style="opacity:0.999;fill:#a35c2f;fill-opacity:1;stroke:none;stroke-width:1.05252;stroke-linecap:round;stroke-linejoin:round;stroke-miterlimit:4;stroke-dasharray:none;stroke-opacity:1"
       id="rect3858"
       width="87.3125"
       height="1.5875"
       x="24.077084"
       y="149.22501" />
    <rect
       style="opacity:0.999;fill:#a35c2f;fill-opacity:1;stroke:none;stroke-width:1.05252;stroke-linecap:round;stroke-linejoin:round;stroke-miterlimit:4;stroke-dasharray:none;stroke-opacity:1"
       id="rect3860"
       width="87.3125"
       height="1.5875"
       x="24.077084"
       y="154.51666" />
    <rect
       style="opacity:0.999;fill:#a35c2f;fill-opacity:1;stroke:none;stroke-width:1.05252;stroke-linecap:round;stroke-linejoin:round;stroke-miterlimit:4;stroke-dasharray:none;stroke-opacity:1"
       id="rect3862"
       width="87.3125"
       height="1.5875"
       x="24.077084"
       y="159.80833" />
    <rect
       style="opacity:0.999;fill:#a35c2f;fill-opacity:1;stroke:none;stroke-width:1.05252;stroke-linecap:round;stroke-linejoin:round;stroke-miterlimit:4;stroke-dasharray:none;stroke-opacity:1"
       id="rect3879"
       width="87.3125"
       height="1.5875"
       x="24.077084"
       y="165.10001" />
    <path
       id="path1474"
       style="fill:#a35c2f;fill-opacity:1;stroke:none;stroke-width:0.332016px;stroke-linecap:butt;stroke-linejoin:miter;stroke-opacity:1"
       d="m 67.190564,33.866752 c -2.437868,-0.0095 -12.399242,0.753456 -15.753873,13.567888 -0.424185,1.620363 1.047147,12.18661 0.6971,13.692391 -0.2705,1.163664 -2.09655,2.240883 -2.197649,2.830563 -0.500858,2.921139 2.175684,7.121826 2.598409,7.382808 0.760892,0.469773 4.26963,-0.0027 5.205251,0.529794 0.570478,0.324828 1.409114,1.376046 1.409114,1.376046 -0.143148,2.491102 0.04876,3.566377 1.114067,5.402394 2.214907,3.139074 7.47035,2.992671 7.47035,2.992671 0,0 5.255442,0.146403 7.470345,-2.992671 1.065343,-1.836017 1.257217,-2.911292 1.114068,-5.402394 0,0 0.838636,-1.051218 1.409119,-1.376046 0.935619,-0.532683 4.444366,-0.06003 5.20525,-0.529794 0.422721,-0.260982 3.099261,-4.461669 2.59841,-7.382808 -0.101109,-0.58968 -1.927152,-1.666899 -2.197654,-2.830563 -0.35004,-1.505781 1.121288,-12.072028 0.6971,-13.692391 -3.354629,-12.814432 -13.316006,-13.577423 -15.75387,-13.567888 -0.348272,0.0013 -0.542768,0.01881 -0.542768,0.01881 0,0 -0.194502,-0.01743 -0.542769,-0.01881 z m -8.398302,21.448713 c 4.542329,0.03124 5.225991,0.673354 5.722078,1.556323 1.455373,2.590378 1.254977,5.022133 1.063483,5.993143 -0.303919,1.541097 -5.398173,5.156001 -6.622147,5.236371 -0.793896,0.05211 -4.810686,-0.775917 -4.925761,-6.378975 -0.115077,-5.603059 3.711976,-6.414138 4.762347,-6.406862 z m 17.882143,0 c 1.050369,-0.0073 4.877415,0.803803 4.762344,6.406862 -0.11507,5.603058 -4.131867,6.431103 -4.92576,6.378975 -1.223978,-0.08037 -6.31823,-3.695274 -6.622149,-5.236371 -0.191494,-0.97101 -0.391886,-3.402765 1.063483,-5.993143 0.49609,-0.882969 1.179748,-1.525077 5.722082,-1.556323 z m -8.941072,9.430016 c 0,0 0.133569,0.0018 0.338498,0.0837 0.20493,0.08199 0.481141,0.243855 0.766489,0.563517 0.231161,0.258975 0.389363,0.645561 0.60113,1.173726 0.211769,0.528183 0.477402,1.19835 0.924067,2.024523 0.279525,0.517023 0.584089,0.85383 0.822258,1.25478 0.119086,0.200484 0.221449,0.416547 0.295699,0.679599 0.07425,0.263052 0.120706,0.573039 0.127102,0.959733 0.0049,0.294606 -0.01678,0.55386 -0.05901,0.782046 -0.04223,0.228195 -0.105376,0.425016 -0.182866,0.595296 -0.154993,0.34056 -0.368262,0.574128 -0.593349,0.734067 -0.225087,0.159939 -0.461568,0.246393 -0.662085,0.29376 -0.200519,0.04734 -0.365506,0.05562 -0.446793,0.05832 -0.224369,0.0081 -0.457122,-0.0666 -0.680243,-0.182223 -0.223125,-0.115641 -0.436568,-0.272502 -0.621882,-0.430578 -0.370627,-0.316143 -0.629013,-0.636147 -0.629013,-0.636147 0,0 -0.258389,0.320004 -0.629013,0.636147 -0.185316,0.158076 -0.398756,0.314937 -0.621881,0.430578 -0.223121,0.11565 -0.455875,0.189972 -0.680245,0.182223 -0.08129,-0.0027 -0.246272,-0.01107 -0.446792,-0.05832 -0.200519,-0.04734 -0.437,-0.133821 -0.662085,-0.29376 -0.225087,-0.159939 -0.438356,-0.393507 -0.593348,-0.734067 -0.0775,-0.17028 -0.140646,-0.367101 -0.182868,-0.595296 -0.04223,-0.228195 -0.06389,-0.48744 -0.05901,-0.782046 0.0064,-0.386694 0.05285,-0.696681 0.127102,-0.959733 0.07425,-0.263052 0.176617,-0.479115 0.295698,-0.679599 0.238168,-0.40095 0.542734,-0.737757 0.822257,-1.25478 0.446671,-0.826173 0.712299,-1.49634 0.92407,-2.024523 0.211765,-0.528165 0.369967,-0.914751 0.601129,-1.173726 0.285351,-0.319662 0.561558,-0.481563 0.766487,-0.563517 0.204931,-0.08199 0.338501,-0.0837 0.338501,-0.0837 z" />
  </g>
</svg>
