<?xml version="1.0" encoding="UTF-8" standalone="no"?>
<svg
   width="512"
   height="512"
   viewBox="0 0 135.46667 135.46667"
   version="1.1"
   id="svg8"
   inkscape:version="1.1.1 (1:1.1+202109281946+c3084ef5ed)"
   sodipodi:docname="pick-president-l-inkscape.svg"
   xmlns:inkscape="http://www.inkscape.org/namespaces/inkscape"
   xmlns:sodipodi="http://sodipodi.sourceforge.net/DTD/sodipodi-0.dtd"
   xmlns="http://www.w3.org/2000/svg"
   xmlns:svg="http://www.w3.org/2000/svg"
   xmlns:rdf="http://www.w3.org/1999/02/22-rdf-syntax-ns#"
   xmlns:cc="http://creativecommons.org/ns#"
   xmlns:dc="http://purl.org/dc/elements/1.1/">
  <defs
     id="defs2" />
  <sodipodi:namedview
     id="base"
     pagecolor="#000000"
     bordercolor="#666666"
     borderopacity="1.0"
     inkscape:pageopacity="0"
     inkscape:pageshadow="2"
     inkscape:zoom="2.8"
     inkscape:cx="276.78571"
     inkscape:cy="253.92857"
     inkscape:document-units="px"
     inkscape:current-layer="g1517"
     inkscape:document-rotation="0"
     showgrid="false"
     units="px"
     inkscape:pagecheckerboard="true"
     inkscape:window-width="1872"
     inkscape:window-height="1027"
     inkscape:window-x="1920"
     inkscape:window-y="24"
     inkscape:window-maximized="1" />
  <metadata
     id="metadata5">
    <rdf:RDF>
      <cc:Work
         rdf:about="">
        <dc:format>image/svg+xml</dc:format>
        <dc:type
           rdf:resource="http://purl.org/dc/dcmitype/StillImage" />
        <dc:title />
      </cc:Work>
    </rdf:RDF>
  </metadata>
  <g
     inkscape:label="Layer 1"
     inkscape:groupmode="layer"
     id="layer1">
    <g
       id="g1517"
       transform="matrix(0.70016348,0,0,0.70122433,24.447839,18.863166)">
      <path
         id="path1424"
         style="fill:#002838;fill-opacity:1;stroke:none;stroke-width:0.367813;stroke-linecap:butt;stroke-linejoin:miter;stroke-miterlimit:4;stroke-dasharray:none;stroke-opacity:1"
         d="m 61.814823,39.603784 c 0,0 -5.642369,0.156405 -8.382739,1.557461 -12.64966,6.46733 -12.709345,7.531314 -21.125555,9.356249 0,0 -12.21219,-0.303115 -16.119914,2.205441 -4.171265,2.67774 -4.671123,11.093803 6.45541,21.583884 0.206963,0.195125 -0.596498,-18.16151 39.181449,-17.557333 39.777946,-0.604177 38.965936,17.752458 39.172896,17.557333 11.12653,-10.490081 10.63522,-18.906144 6.46396,-21.583884 -3.90772,-2.508556 -16.128466,-2.205441 -16.128466,-2.205441 -8.41621,-1.824935 -8.483726,-2.888919 -21.133389,-9.356249 -2.740367,-1.401056 -8.383652,-1.557461 -8.383652,-1.557461 z"
         sodipodi:nodetypes="cscssccscsc" />
      <path
         id="path1500"
         style="fill:#002838;fill-opacity:1;stroke:none;stroke-width:0.367813px;stroke-linecap:butt;stroke-linejoin:miter;stroke-opacity:1"
         d="m 58.704245,58.586397 c -31.191608,0.08652 -33.291464,15.633291 -33.289972,15.808785 0.01643,1.932557 -0.126025,9.66298 -0.134338,10.420179 -0.154305,14.122034 36.534918,14.966118 36.534918,14.966118 0,0 36.689222,-0.844084 36.534917,-14.966118 -0.0083,-0.757199 -0.15077,-8.487622 -0.13434,-10.420179 0.0015,-0.181155 -2.236378,-16.74125 -36.400577,-15.767836 -1.067634,-0.03042 -2.104429,-0.04374 -3.110608,-0.04095 z" />
      <path
         style="display:inline;fill:none;stroke:#2d9eb3;stroke-width:5.5172;stroke-linecap:butt;stroke-linejoin:miter;stroke-miterlimit:4;stroke-dasharray:none;stroke-opacity:1"
         d="m 99.219146,76.842839 c -9.207331,-0.181252 -11.31509,0.83809 -14.653506,1.545576 -3.478122,0.737094 -6.742319,1.59947 -9.575876,1.988907 -3.5748,0.49131 -13.174941,0.648432 -13.174941,0.648432"
         id="path1480"
         sodipodi:nodetypes="cssc" />
      <path
         style="display:inline;fill:none;stroke:#2d9eb3;stroke-width:5.5172;stroke-linecap:butt;stroke-linejoin:miter;stroke-miterlimit:4;stroke-dasharray:none;stroke-opacity:1"
         d="m 24.410499,76.842839 c 9.207332,-0.181252 11.31509,0.83809 14.653507,1.545576 3.478121,0.737094 6.742318,1.59947 9.575875,1.988907 3.5748,0.49131 13.174942,0.648432 13.174942,0.648432"
         id="path1478"
         sodipodi:nodetypes="cssc" />
      <circle
         style="opacity:0.999;fill:#fbffff;fill-opacity:1;stroke:none;stroke-width:7.46341;stroke-linecap:round;stroke-miterlimit:4;stroke-dasharray:none;stroke-opacity:1;paint-order:stroke fill markers"
         id="path1507"
         cx="61.495136"
         cy="69.994331"
         r="7.9872909" />
      <path
         id="path1449"
         style="display:inline;opacity:1;fill:none;stroke:#2d9eb3;stroke-width:5.5172;stroke-linecap:round;stroke-linejoin:miter;stroke-miterlimit:4;stroke-dasharray:none;stroke-opacity:1"
         d="m 60.375209,58.953716 c -6.432365,-0.01279 -32.364797,0.858381 -35.606046,15.607636 -0.421361,1.917399 -1.559431,7.480089 0.563214,10.542303 1.287699,1.857689 8.284314,2.128547 15.336088,-0.525137 9.546997,-3.592672 18.933167,-3.202017 21.156698,-3.174858 2.361754,0.03468 12.431477,-0.06459 21.135357,3.174858 7.061341,2.628117 14.049108,2.382826 15.336808,0.525137 C 100.41997,82.041441 99.2819,76.478751 98.860541,74.561352 95.156258,57.70506 61.814853,58.975266 61.814853,58.975266 c 0,0 -0.520736,-0.01975 -1.439644,-0.02155 z"
         sodipodi:nodetypes="sssscssscs" />
    </g>
  </g>
</svg>
