<?xml version="1.0" encoding="UTF-8" standalone="no"?>
<svg
   xmlns:dc="http://purl.org/dc/elements/1.1/"
   xmlns:cc="http://creativecommons.org/ns#"
   xmlns:rdf="http://www.w3.org/1999/02/22-rdf-syntax-ns#"
   xmlns:svg="http://www.w3.org/2000/svg"
   xmlns="http://www.w3.org/2000/svg"
   xmlns:sodipodi="http://sodipodi.sourceforge.net/DTD/sodipodi-0.dtd"
   xmlns:inkscape="http://www.inkscape.org/namespaces/inkscape"
   sodipodi:docname="icon-top-cards-c-inkscape.svg"
   inkscape:version="1.0.2 (e86c870879, 2021-01-15)"
   id="svg8"
   version="1.1"
   viewBox="0 0 135.46666 135.46667"
   height="512"
   width="512">
  <defs
     id="defs2" />
  <sodipodi:namedview
     id="base"
     pagecolor="#5f0000"
     bordercolor="#666666"
     borderopacity="1.0"
     inkscape:pageopacity="0"
     inkscape:pageshadow="2"
     inkscape:zoom="0.70710681"
     inkscape:cx="-4.3480579"
     inkscape:cy="265.66614"
     inkscape:document-units="mm"
     inkscape:current-layer="svg8"
     inkscape:document-rotation="0"
     showgrid="false"
     inkscape:pagecheckerboard="true"
     units="px"
     inkscape:window-width="1872"
     inkscape:window-height="1027"
     inkscape:window-x="1920"
     inkscape:window-y="24"
     inkscape:window-maximized="1" />
  <metadata
     id="metadata5">
    <rdf:RDF>
      <cc:Work
         rdf:about="">
        <dc:format>image/svg+xml</dc:format>
        <dc:type
           rdf:resource="http://purl.org/dc/dcmitype/StillImage" />
        <dc:title />
      </cc:Work>
    </rdf:RDF>
  </metadata>
  <g
     inkscape:label="Layer 1"
     inkscape:groupmode="layer"
     id="layer1" />
  <g
     id="g842"
     transform="matrix(0.49999999,0,0,0.49999999,33.866674,33.866681)">
    <path
       id="path1022"
       style="color:#000000;font-style:normal;font-variant:normal;font-weight:normal;font-stretch:normal;font-size:medium;line-height:normal;font-family:sans-serif;font-variant-ligatures:normal;font-variant-position:normal;font-variant-caps:normal;font-variant-numeric:normal;font-variant-alternates:normal;font-variant-east-asian:normal;font-feature-settings:normal;font-variation-settings:normal;text-indent:0;text-align:start;text-decoration:none;text-decoration-line:none;text-decoration-style:solid;text-decoration-color:#000000;letter-spacing:normal;word-spacing:normal;text-transform:none;writing-mode:lr-tb;direction:ltr;text-orientation:mixed;dominant-baseline:auto;baseline-shift:baseline;text-anchor:start;white-space:normal;shape-padding:0;shape-margin:0;inline-size:0;clip-rule:nonzero;display:inline;overflow:visible;visibility:visible;opacity:0.996;isolation:auto;mix-blend-mode:normal;color-interpolation:sRGB;color-interpolation-filters:linearRGB;solid-color:#000000;solid-opacity:1;vector-effect:none;fill:#ffffff;fill-opacity:1;fill-rule:nonzero;stroke:none;stroke-width:2.58248;stroke-linecap:butt;stroke-linejoin:round;stroke-miterlimit:4;stroke-dasharray:none;stroke-dashoffset:0;stroke-opacity:1;paint-order:stroke fill markers;color-rendering:auto;image-rendering:auto;shape-rendering:auto;text-rendering:auto;enable-background:accumulate;stop-color:#000000"
       d="M 3.9256704,23.726478 A 10.658887,5.3152582 26.297655 0 0 1.9465467,31.048042 L 12.514567,43.114617 A 10.658887,5.3152582 26.297655 0 0 26.27564,49.14177 l 105.17945,-8.622982 a 10.658887,5.3152582 26.297655 0 0 2.06915,-7.325069 l -1.98194,-2.263031 a 10.658887,5.3152582 26.297655 0 1 -0.09,0.0088 L 26.277052,39.562479 a 10.658887,5.3152582 26.297655 0 1 -0.19974,0.0139 10.658887,5.3152582 26.297655 0 1 -0.205375,0.01051 10.658887,5.3152582 26.297655 0 1 -0.209593,0.0054 10.658887,5.3152582 26.297655 0 1 -0.213813,0.0017 10.658887,5.3152582 26.297655 0 1 -0.215201,-0.0034 10.658887,5.3152582 26.297655 0 1 -0.219448,-0.0071 10.658887,5.3152582 26.297655 0 1 -0.222251,-0.01051 10.658887,5.3152582 26.297655 0 1 -0.225055,-0.01593 10.658887,5.3152582 26.297655 0 1 -0.227885,-0.02101 10.658887,5.3152582 26.297655 0 1 -0.229274,-0.0244 10.658887,5.3152582 26.297655 0 1 -0.232105,-0.02813 10.658887,5.3152582 26.297655 0 1 -0.234908,-0.03322 10.658887,5.3152582 26.297655 0 1 -0.237713,-0.03678 10.658887,5.3152582 26.297655 0 1 -0.237712,-0.04027 10.658887,5.3152582 26.297655 0 1 -0.240543,-0.04556 10.658887,5.3152582 26.297655 0 1 -0.241931,-0.05081 10.658887,5.3152582 26.297655 0 1 -0.243346,-0.05254 10.658887,5.3152582 26.297655 0 1 -0.244762,-0.05779 10.658887,5.3152582 26.297655 0 1 -0.246151,-0.06132 10.658887,5.3152582 26.297655 0 1 -0.24615,-0.06657 10.658887,5.3152582 26.297655 0 1 -0.247565,-0.07006 10.658887,5.3152582 26.297655 0 1 -0.248982,-0.07355 10.658887,5.3152582 26.297655 0 1 -0.248981,-0.07708 10.658887,5.3152582 26.297655 0 1 -0.248981,-0.08057 10.658887,5.3152582 26.297655 0 1 -0.248981,-0.08582 10.658887,5.3152582 26.297655 0 1 -0.248981,-0.08758 10.658887,5.3152582 26.297655 0 1 -0.250397,-0.09284 10.658887,5.3152582 26.297655 0 1 -0.247565,-0.09633 10.658887,5.3152582 26.297655 0 1 -0.248982,-0.09982 A 10.658887,5.3152582 26.297655 0 1 19.217116,38.173415 10.658887,5.3152582 26.297655 0 1 18.96955,38.066579 10.658887,5.3152582 26.297655 0 1 18.7234,37.956217 10.658887,5.3152582 26.297655 0 1 18.478638,37.844126 10.658887,5.3152582 26.297655 0 1 18.235291,37.72851 10.658887,5.3152582 26.297655 0 1 17.991945,37.609403 10.658887,5.3152582 26.297655 0 1 17.751429,37.486805 10.658887,5.3152582 26.297655 0 1 17.512301,37.360682 10.658887,5.3152582 26.297655 0 1 17.275978,37.23283 10.658887,5.3152582 26.297655 0 1 17.041069,37.103216 10.658887,5.3152582 26.297655 0 1 16.807576,36.968348 10.658887,5.3152582 26.297655 0 1 16.576887,36.83348 a 10.658887,5.3152582 26.297655 0 1 -0.227886,-0.140122 10.658887,5.3152582 26.297655 0 1 -0.22647,-0.140122 10.658887,5.3152582 26.297655 0 1 -0.222251,-0.143613 10.658887,5.3152582 26.297655 0 1 -0.219448,-0.145376 10.658887,5.3152582 26.297655 0 1 -0.216616,-0.1489 10.658887,5.3152582 26.297655 0 1 -0.213813,-0.148867 10.658887,5.3152582 26.297655 0 1 -0.211009,-0.152392 10.658887,5.3152582 26.297655 0 1 -0.206763,-0.154154 10.658887,5.3152582 26.297655 0 1 -0.202544,-0.155883 10.658887,5.3152582 26.297655 0 1 -0.19974,-0.157645 10.658887,5.3152582 26.297655 0 1 -0.195521,-0.157646 10.658887,5.3152582 26.297655 0 1 -0.192718,-0.161137 10.658887,5.3152582 26.297655 0 1 -0.187083,-0.161136 10.658887,5.3152582 26.297655 0 1 -0.182864,-0.162899 10.658887,5.3152582 26.297655 0 1 -0.18006,-0.164662 10.658887,5.3152582 26.297655 0 1 -0.174425,-0.164628 10.658887,5.3152582 26.297655 0 1 -0.170207,-0.166391 10.658887,5.3152582 26.297655 0 1 -0.164572,-0.16639 10.658887,5.3152582 26.297655 0 1 -0.160353,-0.168153 10.658887,5.3152582 26.297655 0 1 -0.156133,-0.168153 10.658887,5.3152582 26.297655 0 1 -0.1505,-0.169881 z" />
    <path
       style="color:#000000;font-style:normal;font-variant:normal;font-weight:normal;font-stretch:normal;font-size:medium;line-height:normal;font-family:sans-serif;font-variant-ligatures:normal;font-variant-position:normal;font-variant-caps:normal;font-variant-numeric:normal;font-variant-alternates:normal;font-variant-east-asian:normal;font-feature-settings:normal;font-variation-settings:normal;text-indent:0;text-align:start;text-decoration:none;text-decoration-line:none;text-decoration-style:solid;text-decoration-color:#000000;letter-spacing:normal;word-spacing:normal;text-transform:none;writing-mode:lr-tb;direction:ltr;text-orientation:mixed;dominant-baseline:auto;baseline-shift:baseline;text-anchor:start;white-space:normal;shape-padding:0;shape-margin:0;inline-size:0;clip-rule:nonzero;display:inline;overflow:visible;visibility:visible;opacity:0.996;isolation:auto;mix-blend-mode:normal;color-interpolation:sRGB;color-interpolation-filters:linearRGB;solid-color:#000000;solid-opacity:1;vector-effect:none;fill:#ffffff;fill-opacity:1;fill-rule:nonzero;stroke:none;stroke-width:2.58248;stroke-linecap:butt;stroke-linejoin:round;stroke-miterlimit:4;stroke-dasharray:none;stroke-dashoffset:0;stroke-opacity:1;paint-order:stroke fill markers;color-rendering:auto;image-rendering:auto;shape-rendering:auto;text-rendering:auto;enable-background:accumulate;stop-color:#000000"
       d="M 4.0136236,8.655182 A 10.658887,5.3152582 26.297654 0 0 1.944614,15.980078 l 10.571251,12.072191 a 10.658887,5.3152582 26.297654 0 0 13.760855,6.026997 l 105.17524,-8.623392 a 10.658887,5.3152582 26.297654 0 0 2.07431,-7.325333 L 122.95502,6.0583495 A 10.658887,5.3152582 26.297654 0 0 109.18886,0.0317867 Z"
       id="path1055" />
    <path
       id="path1089"
       style="color:#000000;font-style:normal;font-variant:normal;font-weight:normal;font-stretch:normal;font-size:medium;line-height:normal;font-family:sans-serif;font-variant-ligatures:normal;font-variant-position:normal;font-variant-caps:normal;font-variant-numeric:normal;font-variant-alternates:normal;font-variant-east-asian:normal;font-feature-settings:normal;font-variation-settings:normal;text-indent:0;text-align:start;text-decoration:none;text-decoration-line:none;text-decoration-style:solid;text-decoration-color:#000000;letter-spacing:normal;word-spacing:normal;text-transform:none;writing-mode:lr-tb;direction:ltr;text-orientation:mixed;dominant-baseline:auto;baseline-shift:baseline;text-anchor:start;white-space:normal;shape-padding:0;shape-margin:0;inline-size:0;clip-rule:nonzero;display:inline;overflow:visible;visibility:visible;opacity:0.996;isolation:auto;mix-blend-mode:normal;color-interpolation:sRGB;color-interpolation-filters:linearRGB;solid-color:#000000;solid-opacity:1;vector-effect:none;fill:#ffffff;fill-opacity:1;fill-rule:nonzero;stroke:none;stroke-width:2.58248;stroke-linecap:butt;stroke-linejoin:round;stroke-miterlimit:4;stroke-dasharray:none;stroke-dashoffset:0;stroke-opacity:1;paint-order:stroke fill markers;color-rendering:auto;image-rendering:auto;shape-rendering:auto;text-rendering:auto;enable-background:accumulate;stop-color:#000000"
       d="m 3.9256704,38.979214 c -2.0317481,-0.189608 -4.9299189,1.928034 -3.57959033,4.811449 2.28420793,4.02337 5.69159643,6.851007 8.46498003,10.348022 3.4305169,4.216921 7.2466109,8.261828 12.1170739,9.502122 5.259882,1.642896 10.677817,-0.0051 16.007524,-0.120259 31.755699,-2.626636 63.518022,-5.161038 95.269582,-7.845346 2.01972,0.05474 4.22847,-2.491433 2.81264,-4.970759 -0.99275,-1.702859 -2.33609,-3.73312 -3.83893,-4.489802 C 95.863171,49.071763 60.551938,52.081647 25.233321,54.843351 19.486607,54.598026 13.98233,51.256826 10.093186,46.021623 8.0373486,43.674152 5.9815081,41.326685 3.9256704,38.979214 Z" />
    <path
       id="path2052"
       style="color:#000000;font-style:normal;font-variant:normal;font-weight:normal;font-stretch:normal;font-size:medium;line-height:normal;font-family:sans-serif;font-variant-ligatures:normal;font-variant-position:normal;font-variant-caps:normal;font-variant-numeric:normal;font-variant-alternates:normal;font-variant-east-asian:normal;font-feature-settings:normal;font-variation-settings:normal;text-indent:0;text-align:start;text-decoration:none;text-decoration-line:none;text-decoration-style:solid;text-decoration-color:#000000;letter-spacing:normal;word-spacing:normal;text-transform:none;writing-mode:lr-tb;direction:ltr;text-orientation:mixed;dominant-baseline:auto;baseline-shift:baseline;text-anchor:start;white-space:normal;shape-padding:0;shape-margin:0;inline-size:0;clip-rule:nonzero;display:inline;overflow:visible;visibility:visible;opacity:0.996;isolation:auto;mix-blend-mode:normal;color-interpolation:sRGB;color-interpolation-filters:linearRGB;solid-color:#000000;solid-opacity:1;vector-effect:none;fill:#990200;fill-opacity:1;fill-rule:nonzero;stroke:none;stroke-width:2.58248;stroke-linecap:butt;stroke-linejoin:round;stroke-miterlimit:4;stroke-dasharray:none;stroke-dashoffset:0;stroke-opacity:1;paint-order:stroke fill markers;color-rendering:auto;image-rendering:auto;shape-rendering:auto;text-rendering:auto;enable-background:accumulate;stop-color:#000000"
       d="m 3.5360382,54.875755 c -1.9875646,0.08697 -3.17571936,1.683804 -3.19024122,4.820325 v 52.36497 2.83054 c -0.002567,1.2194 5.69172442,6.85126 8.46511072,10.34828 3.4305123,4.21692 7.2462573,8.26198 12.1167223,9.50227 5.25988,1.6429 10.677749,-0.006 16.007461,-0.12087 31.755697,-2.62664 63.518169,-5.16098 95.269729,-7.84529 2.01972,0.0547 2.84776,-1.90969 2.81326,-4.97096 V 69.842929 c 0.0174,-1.351521 0.002,-1.949777 0,-3.233404 0.0114,-0.680645 -2.33584,-3.732588 -3.8387,-4.489266 C 95.863609,64.977378 60.551941,67.986786 25.233324,70.748494 19.486613,70.503162 13.982894,67.162783 10.093755,61.927579 8.0379148,59.580112 5.9815108,57.231984 3.9256704,54.884517 3.7986892,54.872653 3.6685505,54.869942 3.5360382,54.875704 Z"
       sodipodi:nodetypes="ccccccccccccccccc" />
  </g>
</svg>
