<?xml version="1.0" encoding="UTF-8" standalone="no"?>
<svg
   xmlns:dc="http://purl.org/dc/elements/1.1/"
   xmlns:cc="http://creativecommons.org/ns#"
   xmlns:rdf="http://www.w3.org/1999/02/22-rdf-syntax-ns#"
   xmlns:svg="http://www.w3.org/2000/svg"
   xmlns="http://www.w3.org/2000/svg"
   xmlns:sodipodi="http://sodipodi.sourceforge.net/DTD/sodipodi-0.dtd"
   xmlns:inkscape="http://www.inkscape.org/namespaces/inkscape"
   width="512"
   height="512"
   viewBox="0 0 135.46667 135.46667"
   version="1.1"
   id="svg8"
   inkscape:version="1.0.2 (e86c870879, 2021-01-15)"
   sodipodi:docname="win-c-inkscape.svg">
  <defs
     id="defs2" />
  <sodipodi:namedview
     id="base"
     pagecolor="#000000"
     bordercolor="#666666"
     borderopacity="1.0"
     inkscape:pageopacity="0"
     inkscape:pageshadow="2"
     inkscape:zoom="0.98994949"
     inkscape:cx="230.0806"
     inkscape:cy="411.20001"
     inkscape:document-units="px"
     inkscape:current-layer="layer1"
     inkscape:document-rotation="0"
     showgrid="false"
     units="px"
     inkscape:pagecheckerboard="true"
     inkscape:window-width="1872"
     inkscape:window-height="1027"
     inkscape:window-x="1920"
     inkscape:window-y="24"
     inkscape:window-maximized="1" />
  <metadata
     id="metadata5">
    <rdf:RDF>
      <cc:Work
         rdf:about="">
        <dc:format>image/svg+xml</dc:format>
        <dc:type
           rdf:resource="http://purl.org/dc/dcmitype/StillImage" />
        <dc:title></dc:title>
      </cc:Work>
    </rdf:RDF>
  </metadata>
  <g
     inkscape:label="Layer 1"
     inkscape:groupmode="layer"
     id="layer1">
    <g
       id="g838">
      <path
         id="hammer_head"
         class="st0"
         d="M 48.472344,34.560626 24.587424,57.293541 37.310688,70.016805 48.318743,58.957549 c 21.452908,21.76011 38.118592,38.681795 58.829097,59.699501 5.73443,5.93923 15.71848,-2.15041 9.31845,-9.01125 C 94.578176,88.320897 79.4229,72.93522 56.613185,50.586307 L 70.130053,36.992638 Z"
         style="fill:#8b0000;fill-opacity:1;stroke-width:0.256001" />
      <path
         id="sickle_handle"
         class="st0"
         d="M 47.65314,98.356148 C 90.379755,138.01075 159.6281,66.535187 71.128458,14.746126 v 0 C 136.97199,87.911295 73.765271,110.33701 50.878756,87.757694 L 49.72675,86.810489 c -0.947205,1.049606 -1.868809,2.099211 -2.816014,3.148816 -1.766409,-1.664008 -4.531223,-2.176011 -5.376027,0.691204 -3.481618,-0.230401 -5.529628,1.689608 -6.451233,5.299226 -6.476832,4.300825 -13.491268,8.064045 -17.536088,14.796875 -2.304012,7.14244 2.252811,10.24005 7.398437,9.65125 8.448043,-3.50722 11.059256,-11.11046 15.590479,-17.35689 3.200016,-1.024 5.91363,-2.38081 6.400032,-5.299225"
         style="fill:#8b0000;fill-opacity:1;stroke-width:0.256001" />
    </g>
  </g>
</svg>
