<?xml version="1.0" encoding="UTF-8" standalone="no"?>
<svg
   xmlns:dc="http://purl.org/dc/elements/1.1/"
   xmlns:cc="http://creativecommons.org/ns#"
   xmlns:rdf="http://www.w3.org/1999/02/22-rdf-syntax-ns#"
   xmlns:svg="http://www.w3.org/2000/svg"
   xmlns="http://www.w3.org/2000/svg"
   xmlns:sodipodi="http://sodipodi.sourceforge.net/DTD/sodipodi-0.dtd"
   xmlns:inkscape="http://www.inkscape.org/namespaces/inkscape"
   width="512"
   height="512"
   viewBox="0 0 135.46667 135.46667"
   version="1.1"
   id="svg8"
   inkscape:version="1.0.2 (e86c870879, 2021-01-15)"
   sodipodi:docname="win-f-inkscape.svg">
  <defs
     id="defs2">
    <inkscape:path-effect
       effect="skeletal"
       id="path-effect1706"
       is_visible="true"
       lpeversion="1"
       pattern="M 0,0 H 1"
       copytype="single_stretched"
       prop_scale="1"
       scale_y_rel="false"
       spacing="0"
       normal_offset="0"
       tang_offset="0"
       prop_units="false"
       vertical_pattern="false"
       hide_knot="false"
       fuse_tolerance="0" />
  </defs>
  <sodipodi:namedview
     id="base"
     pagecolor="#000000"
     bordercolor="#666666"
     borderopacity="1.0"
     inkscape:pageopacity="0"
     inkscape:pageshadow="2"
     inkscape:zoom="2.8284271"
     inkscape:cx="282.39158"
     inkscape:cy="341.80669"
     inkscape:document-units="px"
     inkscape:current-layer="layer1"
     inkscape:document-rotation="0"
     showgrid="false"
     units="px"
     inkscape:pagecheckerboard="true"
     inkscape:snap-global="true"
     inkscape:snap-bbox="true"
     inkscape:window-width="1872"
     inkscape:window-height="1027"
     inkscape:window-x="1920"
     inkscape:window-y="24"
     inkscape:window-maximized="1"
     inkscape:object-paths="true"
     inkscape:object-nodes="true"
     inkscape:snap-nodes="true" />
  <metadata
     id="metadata5">
    <rdf:RDF>
      <cc:Work
         rdf:about="">
        <dc:format>image/svg+xml</dc:format>
        <dc:type
           rdf:resource="http://purl.org/dc/dcmitype/StillImage" />
        <dc:title></dc:title>
      </cc:Work>
    </rdf:RDF>
  </metadata>
  <g
     inkscape:label="Layer 1"
     inkscape:groupmode="layer"
     id="layer1">
    <path
       id="path1811"
       style="fill:#2d1a0d;fill-opacity:1;stroke:none;stroke-width:0.264583px;stroke-linecap:butt;stroke-linejoin:miter;stroke-opacity:1"
       d="m 50.114672,97.277446 c 0,0 -1.654723,15.492634 1.546158,21.348054 5.525739,10.10831 16.072404,9.19582 16.072404,9.19582 0,0 10.546665,0.91249 16.072403,-9.19582 3.200882,-5.85542 1.546159,-21.348054 1.546159,-21.348054 0,0 -1.058947,0.08132 -1.308447,0.213424 -0.250478,0.132609 -0.631679,1.121314 -1.182872,1.361673 -0.382119,0.166632 -15.127243,0.980302 -15.127243,0.980302 0,0 -14.745124,-0.81367 -15.127243,-0.980302 -0.551193,-0.240359 -0.932394,-1.229064 -1.182873,-1.361673 -0.249499,-0.132101 -1.308446,-0.213424 -1.308446,-0.213424 z" />
    <g
       id="g1540"
       style="display:inline"
       transform="translate(-1.0123995e-4,-6.3446557)">
      <path
         id="path1668"
         style="fill:#2d1a0d;fill-opacity:1;stroke:none;stroke-width:0.240976px;stroke-linecap:butt;stroke-linejoin:miter;stroke-opacity:1"
         d="m 64.409045,16.986507 c 0,0 -0.767152,0.487931 -1.871327,1.225588 0.111162,0.131733 0.786902,0.952605 1.156402,1.926865 0.345251,0.910327 0.806233,2.897357 0.806233,2.897357 0,0 0.920611,-2.399021 0.8533,-3.466851 -0.06563,-1.041139 -0.944608,-2.582959 -0.944608,-2.582959 z" />
      <path
         id="path1691"
         style="fill:#a35c2f;fill-opacity:1;stroke:none;stroke-width:0.910775;stroke-linecap:butt;stroke-linejoin:miter;stroke-miterlimit:4;stroke-dasharray:none;stroke-opacity:1"
         d="m 233.50977,55.869141 c -13.78291,-3.41e-4 -73.69123,11.598562 -87.62305,21.378906 -10.73749,7.537863 -8.02555,27.737673 -6.97266,33.642573 -25.5622,17.45771 -76.346496,65.37523 -74.88281,169.94922 1.323738,94.57565 88.51826,177.38963 191.5918,178.8125 80.15184,1.10646 186.1205,-64.57622 192.13086,-178.58398 1.89641,-35.97255 -6.68958,-92.96351 -41.72266,-132.4668 -31.14901,-35.12357 -52.237,-39.75831 -64.03125,-41.03125 -1.48801,-0.16059 -3.65368,-0.5109 -4.41016,0.84571 -0.70701,1.26792 1.55469,4.06836 1.55469,4.06836 0,0 46.04448,47.81901 56.63086,64.04101 21.98249,33.68479 24.93848,84.01749 23.70703,99.33984 -5.73762,71.3943 -71.41704,149.85135 -163.90039,147.5625 -92.17937,-2.28136 -154.46936,-85.0047 -153.78515,-144.88085 1.23608,-108.17201 74.07031,-147.37696 74.07031,-147.37696 0,0 63.67913,-1.44652 68.19922,-5.54101 1.56347,-1.41627 0.89062,-6.25782 0.89062,-6.25782 0,0 -42.12849,-8.33043 -42.47265,-21.025387 -0.21978,-8.107385 40.95117,-34.144531 40.95117,-34.144531 0,0 -4.14983,-7.359144 -7.8125,-8.173828 -0.48158,-0.107112 -1.19443,-0.158166 -2.11328,-0.158203 z"
         transform="scale(0.26458334)" />
      <path
         style="fill:#2d1a0d;fill-opacity:1;stroke:none;stroke-width:0.240975px;stroke-linecap:butt;stroke-linejoin:miter;stroke-opacity:1"
         d="m 44.217045,21.507539 c 0,0 1.131011,-0.16617 2.122919,-0.02809 0.991909,0.138083 1.867218,0.591804 1.867218,0.591804 0,0 -0.178602,2.481821 -2.152356,2.301985 -2.496929,-0.227503 -1.837781,-2.865701 -1.837781,-2.865701 z"
         id="path1673"
         sodipodi:nodetypes="czcsc" />
      <path
         id="path1694"
         style="fill:#2d1a0d;fill-opacity:1;stroke:none;stroke-width:0.240976;stroke-linecap:butt;stroke-linejoin:miter;stroke-miterlimit:4;stroke-dasharray:none;stroke-opacity:1"
         d="m 38.15916,32.256934 c -1.928132,1.378839 -4.322469,3.396449 -6.734143,6.217833 l 5.693523,4.666081 c 2.019644,-2.513032 4.015984,-4.411039 5.647869,-5.763178 l -2.674734,-3.65276 c -0.246374,-0.09855 -0.475925,-0.204201 -0.66645,-0.323341 -0.262606,-0.164214 -0.5011,-0.350737 -0.717751,-0.551608 -0.201948,-0.187241 -0.383113,-0.387639 -0.548314,-0.593027 z m 57.088194,0.755403 -1.085334,1.436912 c 1.835963,1.967924 3.979378,4.305265 5.9152,6.511993 l 2.34104,-2.383872 c -2.751565,-2.731771 -5.138372,-4.462682 -7.170906,-5.565033 z m 10.328546,8.985761 -2.65027,2.317037 c 0.75161,0.92975 1.37125,1.74894 1.78991,2.390461 0.94537,1.448633 1.75541,3.014683 2.45164,4.637371 l 3.41367,-1.401142 c -1.32163,-2.798381 -2.96961,-5.492847 -5.00495,-7.943727 z m -77.095305,0.363816 c -1.616015,2.416362 -3.146805,5.24455 -4.44299,8.53299 l 6.757205,2.957129 c 1.140459,-2.745331 2.452302,-5.158915 3.822666,-7.261747 z m 83.870385,11.911827 -3.67111,1.227942 c 0.87319,2.852476 1.45271,5.727204 1.81909,8.340962 l 4.09187,-0.602912 c -0.46256,-2.917327 -1.18817,-5.959285 -2.23985,-8.965992 z m -89.918312,1.389847 c -0.802123,2.836607 -1.427487,5.954701 -1.80873,9.378287 l 6.934172,0.656095 c 0.431057,-2.907756 1.06419,-5.581606 1.843087,-8.031741 z m 92.695652,12.268584 -4.18413,0.237209 c 0.13479,2.070965 0.12863,3.764172 0.0438,4.819988 -0.0952,1.184803 -0.25281,2.377091 -0.47065,3.570865 l 4.38934,0.704572 c 0.13468,-1.080284 0.23662,-2.177416 0.29557,-3.295533 0.096,-1.821131 0.081,-3.862278 -0.0739,-6.037101 z M 20.262945,69.89057 c -0.05139,1.302281 -0.0711,2.641087 -0.05177,4.022225 0.02631,1.879871 0.191451,3.740573 0.482893,5.573977 l 6.620244,-1.197819 c -0.268427,-1.56813 -0.397723,-3.105847 -0.38076,-4.590306 0.01474,-1.289774 0.06949,-2.541337 0.157669,-3.757716 z m 89.269285,10.769076 c -0.7896,2.661881 -1.86794,5.298583 -3.21129,7.846774 l 4.57289,2.433761 c 1.33107,-2.761088 2.39591,-5.714844 3.14257,-8.852095 z m -81.163651,1.903331 -6.648483,1.565402 c 0.885652,3.125926 2.142281,6.142284 3.722416,9.001763 l 6.238542,-3.108681 c -1.405407,-2.455616 -2.518382,-4.96921 -3.312475,-7.458484 z m 75.742631,9.692686 c -1.54077,2.349569 -3.31631,4.586436 -5.302876,6.655073 l 4.011866,3.651814 c 2.13529,-2.24759 4.07524,-4.722274 5.75518,-7.41612 z m -70.19313,1.274065 -5.869547,3.769483 c 1.82309,2.593092 3.924714,5.016139 6.259251,7.228329 l 4.843049,-4.8454 C 37.19151,97.753696 35.439876,95.683054 33.91808,93.529728 Z m 61.726978,8.375322 c -2.106129,1.80735 -4.398832,3.43052 -6.856513,4.82328 l 2.879943,4.6449 c 2.687062,-1.57478 5.273769,-3.41213 7.68675,-5.50197 z m -53.413314,0.54502 -4.235901,5.24451 c 2.504117,1.94597 5.211595,3.66678 8.081161,5.12403 l 2.819698,-5.8606 c -2.388947,-1.31075 -4.616124,-2.83096 -6.664958,-4.50794 z m 42.702129,6.20654 c -2.451627,1.07067 -5.039666,1.91557 -7.749817,2.49353 l 1.324895,5.66717 c 2.989229,-0.76246 5.996327,-1.84033 8.93446,-3.21976 z m -32.206504,0.15861 -2.268091,5.97215 c 2.888355,1.13298 5.906275,2.00593 9.018706,2.58249 l 1.243943,-6.09923 c -2.803027,-0.55351 -5.473583,-1.38832 -7.994558,-2.45541 z M 73.055462,111.81 c -1.76801,0.18911 -3.579606,0.26754 -5.432779,0.22168 -0.893107,-0.0221 -1.774088,-0.0761 -2.645555,-0.15391 l -0.75964,6.12982 c 1.13195,0.0961 2.27312,0.15451 3.42261,0.17038 1.990805,0.0275 4.046499,-0.11433 6.134527,-0.41512 z" />
      <path
         id="path1666"
         style="fill:#7d0024;fill-opacity:1;stroke:none;stroke-width:0.240976px;stroke-linecap:butt;stroke-linejoin:miter;stroke-opacity:1"
         d="m 76.767055,13.847233 c -0.09479,-0.0043 -0.19899,0.0088 -0.312044,0.04659 -0.60296,0.201515 -0.583145,0.799174 -0.583145,0.799174 l 1.92216,5.918496 c 0,0 -2.21601,7.132479 -9.495011,7.480133 -4.100039,0.195822 -10.42024,-2.214684 -11.826637,-2.486004 -0.570681,-0.110095 -2.022481,-0.0019 -2.83429,0.09413 -0.03987,0.114893 -0.06663,0.224304 -0.06401,0.320987 0.01048,0.386759 0.172676,0.757631 0.442417,1.11216 1.11612,-0.132297 1.807569,-0.192825 2.362223,-0.01459 1.803019,0.579389 7.387659,2.584508 11.912767,2.588606 8.708755,0.0079 11.246791,-8.808793 11.246791,-8.808793 l 4.194485,-4.618075 c 0,0 0.258974,-0.535134 -0.224975,-0.955431 -0.483947,-0.420297 -1.027441,-0.01459 -1.027441,-0.01459 l -3.504504,3.908798 -1.5654,-5.014838 c 0,0 -0.232657,-0.338071 -0.643386,-0.356757 z" />
    </g>
    <path
       id="path1874"
       style="fill:#000000;fill-opacity:0.263696;stroke:none;stroke-width:0.63574px;stroke-linecap:butt;stroke-linejoin:miter;stroke-opacity:1"
       d="m 82.485306,100.22858 c 0,0 -29.355798,-3e-5 -29.357898,-0.003 3e-6,1e-5 0.0021,0.003 0.0021,0.003 -0.244761,5.34167 0.08324,7.64733 1.904793,11.5843 3.787127,6.73114 12.772864,6.41721 12.772864,6.41721 0,0 8.986248,0.31393 12.77338,-6.41721 1.821482,-3.93678 2.149488,-6.24251 1.904794,-11.58364 z"
       sodipodi:nodetypes="ccccccsc" />
    <g
       id="g1838"
       style="display:inline"
       transform="translate(-1.0123995e-4,-6.3446557)">
      <path
         id="path1744"
         style="fill:#a35c2f;fill-opacity:1;stroke:none;stroke-width:0.567693px;stroke-linecap:butt;stroke-linejoin:miter;stroke-opacity:1"
         d="m 66.87932,35.403401 c -4.168363,-0.01631 -21.2007,1.288287 -26.936578,23.1989 -0.725296,2.77056 1.790446,20.837146 1.191928,23.411784 -0.462518,1.989672 -3.584765,3.831547 -3.757639,4.839798 -0.856377,4.994672 3.720086,12.177166 4.442866,12.623414 1.301,0.803233 7.300384,-0.0048 8.900136,0.905863 0.975432,0.55541 2.409368,2.35282 2.409368,2.35282 -0.244761,4.25937 0.08332,6.09793 1.904876,9.23721 3.787129,5.36732 12.773087,5.11699 12.773087,5.11699 0,0 8.98596,0.25033 12.773091,-5.11699 1.821565,-3.13928 2.149636,-4.97784 1.904878,-9.23721 0,0 1.433932,-1.79741 2.409367,-2.35282 1.59975,-0.910792 7.599137,-0.10263 8.900129,-0.905863 0.722782,-0.446248 5.299231,-7.628742 4.442857,-12.623414 -0.172874,-1.008251 -3.295117,-2.850126 -3.757631,-4.839798 -0.598513,-2.574638 1.917211,-20.641224 1.191925,-23.411784 -5.735868,-21.910613 -22.768213,-23.215204 -26.936565,-23.1989 -0.595492,0.0024 -0.928051,0.03217 -0.928051,0.03217 0,0 -0.332562,-0.02983 -0.928044,-0.03217 z m -14.359747,36.67384 c 7.766657,0.05343 8.935606,1.151326 9.783836,2.661061 2.488454,4.42913 2.145807,8.587036 1.818386,10.247306 -0.519655,2.635028 -9.230004,8.815916 -11.322809,8.953348 -1.357432,0.08917 -8.225499,-1.326685 -8.422256,-10.907014 -0.196758,-9.580329 6.346879,-10.967143 8.142843,-10.954701 z m 32.655065,2.207384 c 0,0 6.26011,-0.833012 6.063357,8.747317 -0.196752,9.580329 -7.064818,10.996147 -8.422251,10.907014 -2.092803,-0.137423 -10.803159,-6.318324 -11.32281,-8.953348 -0.277259,-1.405916 -0.355566,-2.152652 -0.09148,-4.008109 4.488011,-2.445044 9.176877,-4.464273 13.773183,-6.692874 z M 67.807364,88.201052 c 0,0 0.228388,0.0031 0.578783,0.143025 0.350395,0.140129 0.822671,0.416955 1.310569,0.963525 0.395246,0.442801 0.665749,1.103793 1.027835,2.006884 0.362088,0.903095 0.816282,2.048983 1.580008,3.461596 0.477941,0.884018 0.998694,1.459916 1.40593,2.145479 0.203615,0.342791 0.378641,0.712226 0.505594,1.161994 0.12696,0.449777 0.206388,0.979818 0.217328,1.640996 0.0084,0.503719 -0.02871,0.947009 -0.10091,1.337179 -0.0722,0.39016 -0.180169,0.7267 -0.312677,1.01785 -0.265008,0.5823 -0.629664,0.98169 -1.014528,1.25514 -0.384863,0.27347 -0.789205,0.4213 -1.132057,0.50228 -0.342856,0.0809 -0.624954,0.095 -0.763945,0.0998 -0.383632,0.0133 -0.781606,-0.11383 -1.163105,-0.31157 -0.38151,-0.19774 -0.746464,-0.46594 -1.063319,-0.73623 -0.633711,-0.54054 -1.075511,-1.0877 -1.075511,-1.0877 0,0 -0.441801,0.54716 -1.075512,1.0877 -0.316856,0.27029 -0.681806,0.5385 -1.063318,0.73623 -0.381499,0.19774 -0.779468,0.32482 -1.163107,0.31157 -0.138989,-0.005 -0.421079,-0.0189 -0.763943,-0.0998 -0.342853,-0.081 -0.747193,-0.22881 -1.132057,-0.50228 -0.384865,-0.27345 -0.749521,-0.67284 -1.014529,-1.25514 -0.132513,-0.29115 -0.240484,-0.62769 -0.312675,-1.01785 -0.0722,-0.39018 -0.109256,-0.83346 -0.100911,-1.337179 0.01091,-0.661178 0.09038,-1.191219 0.217329,-1.640996 0.126952,-0.449768 0.301984,-0.819203 0.505598,-1.161994 0.407224,-0.685563 0.927984,-1.261461 1.405924,-2.145479 0.763734,-1.412613 1.217914,-2.558501 1.580008,-3.461596 0.362089,-0.903091 0.632584,-1.564083 1.027837,-2.006884 0.487901,-0.54657 0.960173,-0.823396 1.310567,-0.963525 0.350402,-0.140129 0.578782,-0.143025 0.578782,-0.143025 z"
         sodipodi:nodetypes="csssscccccccssscccccsscsccsssccccssssscsssccscccsccssscsssssscc" />
      <g
         id="g1611"
         style="fill:#2d1a0d;fill-opacity:1"
         transform="matrix(0.9107745,0,0,0.9107745,4.551514,12.536457)">
        <path
           id="path1589"
           style="opacity:0.999;fill:#2d1a0d;fill-opacity:1;stroke:none;stroke-width:0.295667;stroke-linejoin:round;stroke-miterlimit:4;stroke-dasharray:none;stroke-opacity:1"
           d="m 88.816285,67.778812 c -0.18752,0.0045 -0.294555,0.0186 -0.294555,0.0186 -5.046591,2.44693 -10.194904,4.66381 -15.122591,7.348387 -0.28996,2.037231 -0.204169,2.857119 0.100253,4.400767 0.570558,2.893168 10.134489,9.679522 12.432316,9.830406 1.490416,0.09787 9.030952,-1.456613 9.246981,-11.975494 0.189024,-9.204021 -5.049745,-9.653922 -6.362404,-9.622669 z" />
        <path
           id="path1598"
           style="opacity:0.999;fill:#2d1a0d;fill-opacity:1;stroke:none;stroke-width:1.26841;stroke-linejoin:round;stroke-miterlimit:4;stroke-dasharray:none;stroke-opacity:1"
           d="m 262.49805,313.99219 c 0,0 -0.9463,0.0122 -2.40039,0.59375 -1.45407,0.5815 -3.41477,1.72989 -5.43946,3.99804 -1.64022,1.83754 -2.76303,4.58049 -4.26562,8.32813 -1.50262,3.74766 -3.3873,8.50318 -6.55664,14.36523 -1.98335,3.6685 -4.14409,6.05935 -5.83399,8.9043 -0.84495,1.42251 -1.57082,2.95387 -2.09765,4.82031 -0.52683,1.86648 -0.85707,4.0668 -0.90235,6.81055 -0.0346,2.09034 0.11837,3.92964 0.41797,5.54883 0.29958,1.61909 0.74893,3.01636 1.29883,4.22461 1.09973,2.41642 2.61187,4.07421 4.20898,5.20898 1.59711,1.13485 3.27645,1.74799 4.69922,2.08399 1.42282,0.33585 2.59315,0.39516 3.16993,0.41406 1.59202,0.055 3.24302,-0.4724 4.82617,-1.29297 1.5832,-0.82054 3.09722,-1.93301 4.41211,-3.05469 2.62977,-2.24311 4.46289,-4.51367 4.46289,-4.51367 0,0 1.83507,2.27056 4.46484,4.51367 1.31488,1.12168 2.82892,2.23411 4.41211,3.05469 1.58314,0.82057 3.23418,1.34815 4.82617,1.29297 0.57678,-0.0197 1.74714,-0.0784 3.16992,-0.41406 1.42277,-0.33608 3.10017,-0.94914 4.69727,-2.08399 1.5971,-1.13477 3.11121,-2.79256 4.21094,-5.20898 0.54988,-1.20825 0.99727,-2.60552 1.29687,-4.22461 0.29962,-1.61914 0.4547,-3.45849 0.41992,-5.54883 -0.0454,-2.74375 -0.37548,-4.94407 -0.90234,-6.81055 -0.52683,-1.86644 -1.2527,-3.3978 -2.09766,-4.82031 -1.68994,-2.84495 -3.85062,-5.2358 -5.83398,-8.9043 -3.16931,-5.86205 -5.05405,-10.61757 -6.55664,-14.36523 -1.50259,-3.74764 -2.62544,-6.49059 -4.26563,-8.32813 -2.02467,-2.26815 -3.98538,-3.41654 -5.43945,-3.99804 -1.45407,-0.58067 -2.40234,-0.59375 -2.40234,-0.59375 z"
           transform="scale(0.26458334)" />
        <path
           id="path1573"
           style="opacity:0.999;fill:#2d1a0d;fill-opacity:1;stroke:none;stroke-width:0.319807;stroke-linejoin:round;stroke-miterlimit:4;stroke-dasharray:none;stroke-opacity:1"
           d="m 95.723876,39.884388 c -0.92524,0.91726 -19.519204,19.350988 -28.877308,28.650449 -0.688433,0.684118 -2.532885,1.362729 -2.626196,1.396813 -0.234138,-0.539229 -0.501565,-1.085668 -0.810805,-1.636075 -0.931328,-1.657639 -2.214967,-2.863125 -10.742496,-2.921786 -1.676646,-0.01162 -7.119041,1.091007 -8.579322,7.88634 l -3.910872,-0.918805 c 0.04184,0.721153 0.07249,1.385721 0.08372,1.952334 l 3.548618,0.810286 0.0021,-0.01291 c -0.06829,0.719066 -0.101725,1.483915 -0.08475,2.310455 0.216038,10.518881 7.757084,12.073406 9.2475,11.975495 2.29783,-0.150895 11.861753,-6.937235 12.432316,-9.830407 0.277472,-1.406988 0.558263,-4.44976 -0.581361,-8.000029 l 0.07131,0.179316 c 0,0 2.231486,-1.068729 3.096454,-1.921846 8.570971,-8.45361 27.867978,-27.49835 28.6442,-28.264433 -0.295977,-0.571301 -0.600671,-1.122725 -0.913123,-1.655196 z" />
      </g>
      <g
         id="g1555"
         transform="matrix(0.9107745,0,0,0.9107745,75.504785,78.351402)"
         style="fill:#ffffff;fill-opacity:1">
        <path
           id="circle1538"
           style="opacity:0.999;fill:#ffffff;fill-opacity:1;stroke:none;stroke-width:1.00674;stroke-linejoin:round;stroke-miterlimit:4;stroke-dasharray:none;stroke-opacity:1"
           d="M 23.789062,0 A 24.000001,24.000001 0 0 0 0,24 24.000001,24.000001 0 0 0 24,48 24.000001,24.000001 0 0 0 48,24 24.000001,24.000001 0 0 0 24,0 24.000001,24.000001 0 0 0 23.789062,0 Z M 24,10 A 14,14 0 0 1 38,24 14,14 0 0 1 24,38 14,14 0 0 1 10,24 14,14 0 0 1 24,10 Z"
           transform="scale(0.26458334)" />
        <circle
           style="opacity:0.999;fill:#ffffff;fill-opacity:1;stroke:none;stroke-width:0.217645;stroke-linejoin:round;stroke-miterlimit:4;stroke-dasharray:none;stroke-opacity:1"
           id="path1540"
           cx="6.3499999"
           cy="6.3499999"
           r="2.5135417" />
      </g>
      <path
         id="path1797"
         style="fill:#2d1a0d;fill-opacity:1;stroke:none;stroke-width:0.264583px;stroke-linecap:butt;stroke-linejoin:miter;stroke-opacity:1"
         d="m 56.731423,106.49583 c -0.505333,-7.9e-4 -0.728372,0.33881 -0.723472,0.59066 l 0.06097,6.10648 c 0.389424,0.38374 0.506489,0.52545 0.946105,0.83758 l 0.560795,-6.73167 c -0.019,-0.25926 -0.339064,-0.80235 -0.844394,-0.80305 z m 22.125781,0 c -0.505333,7.9e-4 -0.825407,0.54379 -0.844393,0.80305 l 0.641746,6.6753 c 0.438706,-0.30966 0.473247,-0.37383 0.86251,-0.7544 -0.0127,-0.71412 0.06361,-6.13329 0.06361,-6.13329 -0.01323,-0.23537 -0.218138,-0.59136 -0.723469,-0.59066 z m -16.995346,2.26653 c -0.496872,0.007 -0.694331,0.34852 -0.691431,0.52916 l 0.319879,6.89932 c 0.232463,0.0695 0.463508,0.13408 0.692462,0.19327 l 0.392742,-6.92981 c 0.01228,-0.33581 -0.216778,-0.69894 -0.713652,-0.69194 z m 11.781711,0 c -0.496872,-0.007 -0.72594,0.35613 -0.713653,0.69194 l 0.394293,6.95875 c 0.227689,-0.0575 0.457872,-0.12152 0.689364,-0.18913 l 0.321942,-6.9324 c 0.0029,-0.18064 -0.195075,-0.52215 -0.691946,-0.52916 z m -5.924185,1.15135 c -0.277763,-0.005 -0.642168,0.14106 -0.653709,0.51728 l 0.407728,6.65954 c 0.185407,0.001 0.33383,-5.3e-4 0.33383,-5.3e-4 0,0 0.141412,0.004 0.395325,5.3e-4 l 0.207737,-6.59133 c 0.024,-0.29415 -0.389067,-0.58049 -0.690911,-0.58549 z"
         sodipodi:nodetypes="sccccssccccssccccssccccsccccccc" />
      <path
         style="fill:#2d1a0d;fill-opacity:1;stroke:none;stroke-width:0.264583px;stroke-linecap:butt;stroke-linejoin:miter;stroke-opacity:1"
         d="m 63.526977,35.63437 c -0.05861,0.2501 -5.805621,11.627737 -5.427349,11.627737 0.378272,0 13.179317,0.192876 13.179317,0.192876 l -3.901871,11.335692 8.128227,-13.373492 c 0,0 -10.293559,-2.116775 -10.06199,-2.512208 0.231566,-0.395431 4.047429,-7.49056 4.047429,-7.49056 -1.287079,-0.01793 -4.112778,-0.09699 -5.963763,0.219955 z"
         id="path1881"
         sodipodi:nodetypes="cscccscc" />
    </g>
    <g
       id="g1904"
       transform="translate(-1.0123995e-4,-6.3446557)">
      <path
         style="fill:#a35c2f;fill-opacity:1;stroke:none;stroke-width:0.264583px;stroke-linecap:butt;stroke-linejoin:miter;stroke-opacity:1"
         d="m 50.385197,121.11293 c 1.31917,0.51533 6.86324,1.36802 6.86324,1.36802 l 0.173035,-4.95955 c 0,0 5.50136,1.69325 10.592673,1.69597 5.091313,0.003 9.934337,-1.60789 9.934337,-1.60789 l 1.007881,13.06717 c 0,0 -4.687173,3.62074 -10.288993,3.63281 -16.550453,0.0357 -18.282173,-13.19653 -18.282173,-13.19653 z"
         id="path1816"
         sodipodi:nodetypes="ccczccsc" />
      <g
         id="g1897"
         style="fill:#2d1a0d;fill-opacity:1">
        <path
           style="fill:#2d1a0d;fill-opacity:1;stroke:none;stroke-width:0.264583px;stroke-linecap:butt;stroke-linejoin:miter;stroke-opacity:1"
           d="m 61.498835,118.50845 -0.338242,6.69279 c 0.01752,0.34981 0.438631,0.53747 0.735744,0.54312 0.273851,0.005 0.658438,-0.14396 0.675443,-0.47675 l -0.255527,-6.60714"
           id="path1888"
           sodipodi:nodetypes="ccscc" />
        <path
           style="fill:#2d1a0d;fill-opacity:1;stroke:none;stroke-width:0.264583px;stroke-linecap:butt;stroke-linejoin:miter;stroke-opacity:1"
           d="m 74.121463,118.57405 0.330421,6.62719 c -0.01752,0.34981 -0.438631,0.53747 -0.735744,0.54312 -0.273851,0.005 -0.658438,-0.14396 -0.675443,-0.47675 l 0.265684,-6.54212"
           id="path1890"
           sodipodi:nodetypes="ccscc" />
        <path
           style="fill:#2d1a0d;fill-opacity:1;stroke:none;stroke-width:0.264583px;stroke-linecap:butt;stroke-linejoin:miter;stroke-opacity:1"
           d="m 67.576686,119.21307 -0.279768,6.84587 c -0.0028,0.19891 0.49138,0.35833 0.764721,0.35038 0.301239,-0.009 0.798561,-0.14742 0.812167,-0.42999 l -0.444619,-6.76524"
           id="path1892"
           sodipodi:nodetypes="ccscc" />
      </g>
    </g>
  </g>
</svg>
