<?xml version="1.0" encoding="UTF-8" standalone="no"?>
<svg
   xmlns:dc="http://purl.org/dc/elements/1.1/"
   xmlns:cc="http://creativecommons.org/ns#"
   xmlns:rdf="http://www.w3.org/1999/02/22-rdf-syntax-ns#"
   xmlns:svg="http://www.w3.org/2000/svg"
   xmlns="http://www.w3.org/2000/svg"
   xmlns:sodipodi="http://sodipodi.sourceforge.net/DTD/sodipodi-0.dtd"
   xmlns:inkscape="http://www.inkscape.org/namespaces/inkscape"
   width="512"
   height="512"
   viewBox="0 0 135.46667 135.46667"
   version="1.1"
   id="svg8"
   inkscape:version="1.0.2 (e86c870879, 2021-01-15)"
   sodipodi:docname="win-f-inkscape.svg">
  <defs
     id="defs2">
    <rect
       x="5.6636448"
       y="14.038936"
       width="233.07511"
       height="200.51418"
       id="rect2211" />
  </defs>
  <sodipodi:namedview
     id="base"
     pagecolor="#000000"
     bordercolor="#666666"
     borderopacity="1.0"
     inkscape:pageopacity="0"
     inkscape:pageshadow="2"
     inkscape:zoom="0.7"
     inkscape:cx="-116.24006"
     inkscape:cy="237.99307"
     inkscape:document-units="px"
     inkscape:current-layer="layer1"
     inkscape:document-rotation="0"
     showgrid="false"
     units="px"
     inkscape:pagecheckerboard="true"
     inkscape:window-width="1872"
     inkscape:window-height="1027"
     inkscape:window-x="1920"
     inkscape:window-y="24"
     inkscape:window-maximized="1" />
  <metadata
     id="metadata5">
    <rdf:RDF>
      <cc:Work
         rdf:about="">
        <dc:format>image/svg+xml</dc:format>
        <dc:type
           rdf:resource="http://purl.org/dc/dcmitype/StillImage" />
        <dc:title></dc:title>
      </cc:Work>
    </rdf:RDF>
  </metadata>
  <g
     inkscape:label="Layer 1"
     inkscape:groupmode="layer"
     id="layer1">
    <g
       aria-label="FASCISTS WIN
I GUESS"
       transform="matrix(0.57736875,0,0,0.57736875,-3.8483646,6.2879953)"
       id="text2209"
       style="font-style:normal;font-weight:normal;font-size:50.8px;line-height:1.25;font-family:sans-serif;letter-spacing:0px;word-spacing:0px;white-space:pre;shape-inside:url(#rect2211);fill:#2d1a0d;fill-opacity:1;stroke:none">
      <path
         d="m 35.993805,60.250216 v -20.2692 q 0,-6.2484 1.016,-8.0264 1.016,-1.778 4.318,-4.826 3.3528,-3.047999 4.9784,-3.047999 2.2352,0 5.5372,1.777999 3.302,1.778 4.9276,4.0132 l -5.6388,3.9116 q -2.8448,-2.8448 -4.572,-2.8448 -0.6604,0 -1.524,0.8636 -0.8636,0.8128 -1.4732,1.778 -0.5588,0.9144 -0.5588,4.7244 v 1.1684 h 9.0932 v 6.1468 h -9.0932 v 14.6304 z"
         style="font-style:normal;font-variant:normal;font-weight:normal;font-stretch:normal;font-size:50.8px;font-family:'Germania One';-inkscape-font-specification:'Germania One';text-align:center;text-anchor:middle;fill:#2d1a0d;fill-opacity:1"
         id="path2292" />
      <path
         d="m 64.238569,27.382616 q 3.6068,-3.301999 5.4864,-3.301999 1.8796,0 5.4864,3.301999 3.6068,3.302 4.4704,5.4356 0.5588,1.4732 0.5588,6.6548 v 20.7772 h -7.0104 v -7.62 h -7.0104 v 7.62 h -7.0104 v -20.7772 q 0,-5.1816 0.5588,-6.6548 0.8636,-2.1336 4.4704,-5.4356 z m 1.9812,12.0904 v 7.0612 h 7.0104 v -7.0612 q 0,-4.1656 -0.4064,-5.08 -0.4064,-0.9652 -1.4224,-1.9812 -0.9652,-1.0668 -1.6764,-1.0668 -0.7112,0 -1.7272,1.0668 -0.9652,1.016 -1.3716,1.9812 -0.4064,0.9144 -0.4064,5.08 z"
         style="font-style:normal;font-variant:normal;font-weight:normal;font-stretch:normal;font-size:50.8px;font-family:'Germania One';-inkscape-font-specification:'Germania One';text-align:center;text-anchor:middle;fill:#2d1a0d;fill-opacity:1"
         id="path2294" />
      <path
         d="m 104.52296,45.924616 q 0.5588,0.9144 0.5588,3.6576 0,2.6924 -1.1176,4.572 -1.016,1.4732 -4.317997,4.1148 -3.302,2.5908 -4.8768,2.5908 -2.794,0 -6.4008,-2.8956 -3.606799,-2.9464 -4.571999,-6.4516 l 5.638799,-3.8608 q 0.8128,2.3876 2.5908,4.3688 1.778,1.9812 2.4892,1.9812 0.762,0 1.5748,-0.4572 0.8636,-0.508 1.3208,-1.016 0.6604,-0.8128 0.6604,-2.54 0,-1.7272 -0.8128,-2.1336 -1.016,-0.8636 -3.9624,-2.286 -2.8956,-1.4224 -5.3848,-3.048 -2.489199,-1.6764 -3.200399,-3.2512 -0.6604,-1.5748 -0.6604,-4.064 0,-2.54 1.1176,-4.4196 1.016,-1.4732 4.317999,-4.064 3.302,-2.641599 4.8768,-2.641599 2.794,0 6.400797,2.946399 3.6068,2.8956 4.572,6.4008 l -5.638797,3.9116 q -0.8128,-2.3876 -2.5908,-4.3688 -1.778,-2.032 -2.54,-2.032 -0.7112,0 -1.5748,0.4572 -0.8636,0.4572 -1.4224,1.1684 -0.508,0.6604 -0.508,2.3368 0,1.6256 1.016,2.1844 0.8128,0.7112 3.7084,2.2352 7.416797,4.064 8.737597,6.604 z"
         style="font-style:normal;font-variant:normal;font-weight:normal;font-stretch:normal;font-size:50.8px;font-family:'Germania One';-inkscape-font-specification:'Germania One';text-align:center;text-anchor:middle;fill:#2d1a0d;fill-opacity:1"
         id="path2296" />
      <path
         d="m 107.6217,44.857816 v -4.7752 q 0,-6.35 1.016,-8.128 1.016,-1.778 4.318,-4.826 3.3528,-3.047999 4.9784,-3.047999 2.794,0 6.4008,3.251199 3.6068,3.2004 4.572,7.0612 l -5.6388,3.9116 q -0.8128,-2.7432 -2.5908,-5.0292 -1.778,-2.3368 -2.4892,-2.3368 -1.27,0 -2.8956,2.4892 -0.6604,0.9652 -0.6604,6.6548 v 4.7752 q 0,5.842 0.6604,6.6548 1.6256,2.4892 2.8956,2.4892 0.7112,0 2.4892,-1.9812 1.778,-2.032 2.5908,-4.4704 l 5.6388,3.9624 q -0.9652,3.5052 -4.572,6.4516 -3.6068,2.8956 -6.4008,2.8956 -1.6256,0 -4.9784,-3.048 -3.302,-3.048 -4.318,-4.826 -1.016,-1.778 -1.016,-8.128 z"
         style="font-style:normal;font-variant:normal;font-weight:normal;font-stretch:normal;font-size:50.8px;font-family:'Germania One';-inkscape-font-specification:'Germania One';text-align:center;text-anchor:middle;fill:#2d1a0d;fill-opacity:1"
         id="path2298" />
      <path
         d="M 133.52961,60.250216 V 24.690217 h 7.0104 v 35.559999 z"
         style="font-style:normal;font-variant:normal;font-weight:normal;font-stretch:normal;font-size:50.8px;font-family:'Germania One';-inkscape-font-specification:'Germania One';text-align:center;text-anchor:middle;fill:#2d1a0d;fill-opacity:1"
         id="path2300" />
      <path
         d="m 165.12711,45.924616 q 0.5588,0.9144 0.5588,3.6576 0,2.6924 -1.1176,4.572 -1.016,1.4732 -4.318,4.1148 -3.302,2.5908 -4.8768,2.5908 -2.794,0 -6.4008,-2.8956 -3.6068,-2.9464 -4.572,-6.4516 l 5.6388,-3.8608 q 0.8128,2.3876 2.5908,4.3688 1.778,1.9812 2.4892,1.9812 0.762,0 1.5748,-0.4572 0.8636,-0.508 1.3208,-1.016 0.6604,-0.8128 0.6604,-2.54 0,-1.7272 -0.8128,-2.1336 -1.016,-0.8636 -3.9624,-2.286 -2.8956,-1.4224 -5.3848,-3.048 -2.4892,-1.6764 -3.2004,-3.2512 -0.6604,-1.5748 -0.6604,-4.064 0,-2.54 1.1176,-4.4196 1.016,-1.4732 4.318,-4.064 3.302,-2.641599 4.8768,-2.641599 2.794,0 6.4008,2.946399 3.6068,2.8956 4.572,6.4008 l -5.6388,3.9116 q -0.8128,-2.3876 -2.5908,-4.3688 -1.778,-2.032 -2.54,-2.032 -0.7112,0 -1.5748,0.4572 -0.8636,0.4572 -1.4224,1.1684 -0.508,0.6604 -0.508,2.3368 0,1.6256 1.016,2.1844 0.8128,0.7112 3.7084,2.2352 7.4168,4.064 8.7376,6.604 z"
         style="font-style:normal;font-variant:normal;font-weight:normal;font-stretch:normal;font-size:50.8px;font-family:'Germania One';-inkscape-font-specification:'Germania One';text-align:center;text-anchor:middle;fill:#2d1a0d;fill-opacity:1"
         id="path2302" />
      <path
         d="m 187.78386,24.690217 v 6.095999 h -6.604 v 29.464 h -7.0104 v -29.464 h -6.604 v -6.095999 z"
         style="font-style:normal;font-variant:normal;font-weight:normal;font-stretch:normal;font-size:50.8px;font-family:'Germania One';-inkscape-font-specification:'Germania One';text-align:center;text-anchor:middle;fill:#2d1a0d;fill-opacity:1"
         id="path2304" />
      <path
         d="m 210.1358,45.924616 q 0.5588,0.9144 0.5588,3.6576 0,2.6924 -1.1176,4.572 -1.016,1.4732 -4.318,4.1148 -3.302,2.5908 -4.8768,2.5908 -2.794,0 -6.4008,-2.8956 -3.6068,-2.9464 -4.572,-6.4516 l 5.6388,-3.8608 q 0.8128,2.3876 2.5908,4.3688 1.778,1.9812 2.4892,1.9812 0.762,0 1.5748,-0.4572 0.8636,-0.508 1.3208,-1.016 0.6604,-0.8128 0.6604,-2.54 0,-1.7272 -0.8128,-2.1336 -1.016,-0.8636 -3.9624,-2.286 -2.8956,-1.4224 -5.3848,-3.048 -2.4892,-1.6764 -3.2004,-3.2512 -0.6604,-1.5748 -0.6604,-4.064 0,-2.54 1.1176,-4.4196 1.016,-1.4732 4.318,-4.064 3.302,-2.641599 4.8768,-2.641599 2.794,0 6.4008,2.946399 3.6068,2.8956 4.572,6.4008 l -5.6388,3.9116 q -0.8128,-2.3876 -2.5908,-4.3688 -1.778,-2.032 -2.54,-2.032 -0.7112,0 -1.5748,0.4572 -0.8636,0.4572 -1.4224,1.1684 -0.508,0.6604 -0.508,2.3368 0,1.6256 1.016,2.1844 0.8128,0.7112 3.7084,2.2352 7.4168,4.064 8.7376,6.604 z"
         style="font-style:normal;font-variant:normal;font-weight:normal;font-stretch:normal;font-size:50.8px;font-family:'Germania One';-inkscape-font-specification:'Germania One';text-align:center;text-anchor:middle;fill:#2d1a0d;fill-opacity:1"
         id="path2306" />
      <path
         d="m 106.40248,88.643044 v 19.253196 q 0,2.8448 0.3048,4.3688 0.3556,1.4732 1.3716,3.4036 1.016,1.8796 1.3716,1.8796 0.4064,0 1.4224,-1.8796 1.016,-1.9304 1.3716,-3.4036 0.3556,-1.524 0.3556,-4.3688 v -5.4356 q 0,-4.267196 -0.6096,-5.943596 -0.5588,-1.7272 -2.4384,-4.2164 l 6.096,-4.2672 q 1.6256,1.1176 2.794,4.1656 1.1684,3.048 1.1684,7.3152 v 8.381996 q 0,3.9624 -0.762,6.5532 -0.762,2.54 -4.2164,6.4516 -3.4036,3.9116 -5.1308,3.9116 -1.0668,0 -2.9972,-1.9304 -1.8796,-1.9304 -3.6068,-4.5212 -1.8288,2.6416 -3.708396,4.572 -1.8288,1.8796 -2.8956,1.8796 -1.7272,0 -5.1816,-3.9116 -3.4036,-3.9116 -4.1656,-6.4516 -0.762,-2.5908 -0.762,-6.5532 V 88.643044 h 7.0104 v 19.253196 q 0,3.302 0.3556,4.572 0.3556,1.27 1.3716,3.2004 1.016,1.8796 1.3716,1.8796 0.4064,0 1.4224,-1.8796 1.016,-1.9304 1.3208,-3.4036 0.3556,-1.524 0.3556,-4.3688 V 88.643044 Z"
         style="font-style:normal;font-variant:normal;font-weight:normal;font-stretch:normal;font-size:50.8px;font-family:'Germania One';-inkscape-font-specification:'Germania One';text-align:center;text-anchor:middle;fill:#2d1a0d;fill-opacity:1"
         id="path2308" />
      <path
         d="M 124.23323,124.20304 V 88.643044 h 7.0104 v 35.559996 z"
         style="font-style:normal;font-variant:normal;font-weight:normal;font-stretch:normal;font-size:50.8px;font-family:'Germania One';-inkscape-font-specification:'Germania One';text-align:center;text-anchor:middle;fill:#2d1a0d;fill-opacity:1"
         id="path2310" />
      <path
         d="m 144.60393,97.329844 0.0508,2.1844 v 24.688796 h -7.0104 v -21.7424 q 0,-4.267196 -0.6096,-5.994396 -0.5588,-1.7272 -2.4384,-4.1656 l 6.096,-4.2672 q 1.4732,0.9652 2.7432,3.302 4.0132,-3.302 5.4356,-3.302 1.4224,0 4.4704,2.6924 3.0988,2.6416 3.8608,3.7592 0.762,1.0668 0.762,2.8448 v 26.873196 h -7.0612 V 98.345844 q 0,-0.4572 -0.4064,-1.1176 -0.3556,-0.7112 -1.1684,-1.5748 -0.762,-0.8636 -1.4732,-0.8636 -0.6604,0 -1.6764,0.8128 -1.016,0.762 -1.5748,1.7272 z"
         style="font-style:normal;font-variant:normal;font-weight:normal;font-stretch:normal;font-size:50.8px;font-family:'Germania One';-inkscape-font-specification:'Germania One';text-align:center;text-anchor:middle;fill:#2d1a0d;fill-opacity:1"
         id="path2312" />
      <path
         d="m 51.53859,188.15587 v -35.56 h 7.010399 v 35.56 z"
         style="font-style:normal;font-variant:normal;font-weight:normal;font-stretch:normal;font-size:50.8px;font-family:'Germania One';-inkscape-font-specification:'Germania One';text-align:center;text-anchor:middle;fill:#2d1a0d;fill-opacity:1"
         id="path2314" />
      <path
         d="m 82.373995,167.98827 v 5.3848 q 0,4.1656 0.4064,5.1308 0.4064,0.9144 1.3716,1.9812 1.016,1.016 1.778,1.016 0.762,0 1.930399,-1.0668 1.1684,-1.0668 1.6256,-1.9304 0.3048,-0.8636 0.3556,-2.54 h -3.505199 v -5.6388 h 10.109199 v 17.8308 h -4.9276 l -0.6096,-3.4544 q -3.505199,4.064 -5.181599,4.064 -1.6764,0 -5.334,-3.302 -3.6068,-3.3528 -4.4704,-5.4356 -0.5588,-1.3208 -0.5588,-6.6548 v -5.3848 q 0,-6.35 1.016,-8.128 1.016,-1.778 4.318,-4.826 3.3528,-3.048 4.9784,-3.048 2.793999,0 6.400799,3.2512 3.6068,3.2512 4.572,7.112 l -5.6388,3.9116 q -0.8128,-2.7432 -2.5908,-5.08 -1.777999,-2.3368 -2.489199,-2.3368 -1.27,0 -2.8956,2.4892 -0.6604,0.9652 -0.6604,6.6548 z"
         style="font-style:normal;font-variant:normal;font-weight:normal;font-stretch:normal;font-size:50.8px;font-family:'Germania One';-inkscape-font-specification:'Germania One';text-align:center;text-anchor:middle;fill:#2d1a0d;fill-opacity:1"
         id="path2316" />
      <path
         d="m 123.06477,152.59587 v 20.7772 q 0,5.334 -0.5588,6.6548 -0.8636,2.0828 -4.5212,5.4356 -3.6068,3.302 -5.4356,3.302 -1.8288,0 -5.4864,-3.302 -3.6068,-3.3528 -4.4704,-5.4356 -0.5588,-1.3208 -0.5588,-6.6548 v -7.366 q 0,-4.1148 -0.6096,-5.7912 -0.5588,-1.6764 -2.438397,-3.9624 l 6.095997,-4.2672 q 1.6256,1.0668 2.794,4.1656 1.1684,3.048 1.1684,7.3152 v 9.906 q 0,4.1656 0.4064,5.1308 0.4064,0.9144 1.3716,1.9812 1.016,1.016 1.7272,1.016 0.7112,0 1.6764,-1.016 1.016,-1.0668 1.4224,-1.9812 0.4064,-0.9652 0.4064,-5.1308 v -20.7772 z"
         style="font-style:normal;font-variant:normal;font-weight:normal;font-stretch:normal;font-size:50.8px;font-family:'Germania One';-inkscape-font-specification:'Germania One';text-align:center;text-anchor:middle;fill:#2d1a0d;fill-opacity:1"
         id="path2318" />
      <path
         d="m 135.15509,166.51507 h 9.0932 v 6.1468 h -9.0932 v 9.3472 h 12.1412 v 6.1468 h -19.1516 v -31.2928 l 7.0104,-4.8768 h 11.3284 v 6.1976 h -9.4488 l -1.8796,1.3208 z"
         style="font-style:normal;font-variant:normal;font-weight:normal;font-stretch:normal;font-size:50.8px;font-family:'Germania One';-inkscape-font-specification:'Germania One';text-align:center;text-anchor:middle;fill:#2d1a0d;fill-opacity:1"
         id="path2320" />
      <path
         d="m 170.30867,173.83027 q 0.5588,0.9144 0.5588,3.6576 0,2.6924 -1.1176,4.572 -1.016,1.4732 -4.318,4.1148 -3.302,2.5908 -4.8768,2.5908 -2.794,0 -6.4008,-2.8956 -3.6068,-2.9464 -4.572,-6.4516 l 5.6388,-3.8608 q 0.8128,2.3876 2.5908,4.3688 1.778,1.9812 2.4892,1.9812 0.762,0 1.5748,-0.4572 0.8636,-0.508 1.3208,-1.016 0.6604,-0.8128 0.6604,-2.54 0,-1.7272 -0.8128,-2.1336 -1.016,-0.8636 -3.9624,-2.286 -2.8956,-1.4224 -5.3848,-3.048 -2.4892,-1.6764 -3.2004,-3.2512 -0.6604,-1.5748 -0.6604,-4.064 0,-2.54 1.1176,-4.4196 1.016,-1.4732 4.318,-4.064 3.302,-2.6416 4.8768,-2.6416 2.794,0 6.4008,2.9464 3.6068,2.8956 4.572,6.4008 l -5.6388,3.9116 q -0.8128,-2.3876 -2.5908,-4.3688 -1.778,-2.032 -2.54,-2.032 -0.7112,0 -1.5748,0.4572 -0.8636,0.4572 -1.4224,1.1684 -0.508,0.6604 -0.508,2.3368 0,1.6256 1.016,2.1844 0.8128,0.7112 3.7084,2.2352 7.4168,4.064 8.7376,6.604 z"
         style="font-style:normal;font-variant:normal;font-weight:normal;font-stretch:normal;font-size:50.8px;font-family:'Germania One';-inkscape-font-specification:'Germania One';text-align:center;text-anchor:middle;fill:#2d1a0d;fill-opacity:1"
         id="path2322" />
      <path
         d="m 193.87982,173.83027 q 0.5588,0.9144 0.5588,3.6576 0,2.6924 -1.1176,4.572 -1.016,1.4732 -4.318,4.1148 -3.302,2.5908 -4.8768,2.5908 -2.794,0 -6.4008,-2.8956 -3.6068,-2.9464 -4.572,-6.4516 l 5.6388,-3.8608 q 0.8128,2.3876 2.5908,4.3688 1.778,1.9812 2.4892,1.9812 0.762,0 1.5748,-0.4572 0.8636,-0.508 1.3208,-1.016 0.6604,-0.8128 0.6604,-2.54 0,-1.7272 -0.8128,-2.1336 -1.016,-0.8636 -3.9624,-2.286 -2.8956,-1.4224 -5.3848,-3.048 -2.4892,-1.6764 -3.2004,-3.2512 -0.6604,-1.5748 -0.6604,-4.064 0,-2.54 1.1176,-4.4196 1.016,-1.4732 4.318,-4.064 3.302,-2.6416 4.8768,-2.6416 2.794,0 6.4008,2.9464 3.6068,2.8956 4.572,6.4008 l -5.6388,3.9116 q -0.8128,-2.3876 -2.5908,-4.3688 -1.778,-2.032 -2.54,-2.032 -0.7112,0 -1.5748,0.4572 -0.8636,0.4572 -1.4224,1.1684 -0.508,0.6604 -0.508,2.3368 0,1.6256 1.016,2.1844 0.8128,0.7112 3.7084,2.2352 7.4168,4.064 8.7376,6.604 z"
         style="font-style:normal;font-variant:normal;font-weight:normal;font-stretch:normal;font-size:50.8px;font-family:'Germania One';-inkscape-font-specification:'Germania One';text-align:center;text-anchor:middle;fill:#2d1a0d;fill-opacity:1"
         id="path2324" />
    </g>
  </g>
</svg>
