<?xml version="1.0" encoding="UTF-8" standalone="no"?>
<svg
   xmlns:dc="http://purl.org/dc/elements/1.1/"
   xmlns:cc="http://creativecommons.org/ns#"
   xmlns:rdf="http://www.w3.org/1999/02/22-rdf-syntax-ns#"
   xmlns:svg="http://www.w3.org/2000/svg"
   xmlns="http://www.w3.org/2000/svg"
   xmlns:sodipodi="http://sodipodi.sourceforge.net/DTD/sodipodi-0.dtd"
   xmlns:inkscape="http://www.inkscape.org/namespaces/inkscape"
   width="512"
   height="512"
   viewBox="0 0 135.46667 135.46667"
   version="1.1"
   id="svg8"
   inkscape:version="1.0.2 (e86c870879, 2021-01-15)"
   sodipodi:docname="win-l-inkscape.svg">
  <defs
     id="defs2" />
  <sodipodi:namedview
     id="base"
     pagecolor="#000000"
     bordercolor="#666666"
     borderopacity="1.0"
     inkscape:pageopacity="0"
     inkscape:pageshadow="2"
     inkscape:zoom="1.4"
     inkscape:cx="242.60393"
     inkscape:cy="265.52867"
     inkscape:document-units="px"
     inkscape:current-layer="layer1"
     inkscape:document-rotation="0"
     showgrid="false"
     units="px"
     inkscape:pagecheckerboard="true"
     inkscape:window-width="1872"
     inkscape:window-height="1027"
     inkscape:window-x="1920"
     inkscape:window-y="24"
     inkscape:window-maximized="1" />
  <metadata
     id="metadata5">
    <rdf:RDF>
      <cc:Work
         rdf:about="">
        <dc:format>image/svg+xml</dc:format>
        <dc:type
           rdf:resource="http://purl.org/dc/dcmitype/StillImage" />
        <dc:title></dc:title>
      </cc:Work>
    </rdf:RDF>
  </metadata>
  <g
     inkscape:label="Layer 1"
     inkscape:groupmode="layer"
     id="layer1">
    <path
       style="fill:#2d9eb3;fill-opacity:1;stroke:none;stroke-width:0.689811px;stroke-linecap:butt;stroke-linejoin:miter;stroke-opacity:1"
       d="m 34.629568,55.168685 c 0,0 -1.778698,-11.013074 -3.802788,-16.165246 -2.799024,-7.124696 -11.363316,-19.955894 -11.363316,-19.955894 0,0 16.991201,8.906979 20.574989,13.467224 3.752798,4.775306 9.82866,23.846527 10.582254,24.19493 0.753594,0.348413 3.368181,0.399168 3.368181,0.399168 0,0 10.27828,-16.344485 14.641,-20.236239 5.705196,-5.089309 41.519092,-20.078704 43.925902,-19.938314 1.80312,0.10518 3.4203,2.374539 3.44736,4.180536 0.0414,2.763709 -24.132087,29.684984 -24.132087,29.684984 0,0 0.3113,2.852036 -0.3021,3.848676 -0.61339,0.996642 -5.59362,4.007772 -5.59362,4.007772 0,0 0.27379,3.286142 -0.55539,4.511595 -0.82917,1.225454 -4.912754,2.652155 -4.912754,2.652155 0,0 -0.618464,4.104687 -1.177029,4.62393 -0.558563,0.519242 -4.735953,1.877636 -4.735953,1.877636 0,0 -0.608901,2.500144 -1.437907,3.416233 -2.202912,2.434317 -8.652444,4.705724 -8.652444,4.705724 l 29.121627,29.764895 c 0,0 -1.79833,6.24526 -2.29876,6.66635 -0.32698,0.27515 -8.946894,1.50591 -8.946894,1.50591 0,0 -3.252762,-5.51781 -4.284106,-5.16871 -0.930027,0.31479 -0.783153,3.95778 -0.783153,3.95778 0,0 -0.517065,0.95847 -1.576553,1.27579 -0.65935,0.19748 -7.201137,0 -7.201137,0 0,0 -10.069637,-6.86312 -10.949759,-8.36908 -0.36397,-0.62277 -2.110781,-16.380304 -2.110781,-16.380304 0,0 -16.431384,-2.33318 -21.855575,-7.85687 -6.544365,-6.6644 -5.829426,-17.017382 -5.829426,-17.017382 l -4.061253,2.670098 -1.453039,-11.698954 c 0,0 0.555681,-4.811493 4.563915,-5.983813 3.136593,-0.917384 7.790596,1.35942 7.790596,1.35942 z"
       id="path1434"
       sodipodi:nodetypes="cscsscsssczczczcsccscscscscscccsc" />
  </g>
</svg>
