<?xml version="1.0" encoding="UTF-8" standalone="no"?>
<svg
   xmlns:dc="http://purl.org/dc/elements/1.1/"
   xmlns:cc="http://creativecommons.org/ns#"
   xmlns:rdf="http://www.w3.org/1999/02/22-rdf-syntax-ns#"
   xmlns:svg="http://www.w3.org/2000/svg"
   xmlns="http://www.w3.org/2000/svg"
   xmlns:sodipodi="http://sodipodi.sourceforge.net/DTD/sodipodi-0.dtd"
   xmlns:inkscape="http://www.inkscape.org/namespaces/inkscape"
   width="512"
   height="512"
   viewBox="0 0 135.46667 135.46667"
   version="1.1"
   id="svg8"
   inkscape:version="1.0.2 (e86c870879, 2021-01-15)"
   sodipodi:docname="dove.svg">
  <defs
     id="defs2" />
  <sodipodi:namedview
     id="base"
     pagecolor="#000000"
     bordercolor="#666666"
     borderopacity="1.0"
     inkscape:pageopacity="0"
     inkscape:pageshadow="2"
     inkscape:zoom="0.98994949"
     inkscape:cx="279.91251"
     inkscape:cy="335.34603"
     inkscape:document-units="px"
     inkscape:current-layer="layer1"
     inkscape:document-rotation="0"
     showgrid="false"
     units="px"
     inkscape:pagecheckerboard="true"
     inkscape:window-width="1872"
     inkscape:window-height="1027"
     inkscape:window-x="1920"
     inkscape:window-y="24"
     inkscape:window-maximized="1" />
  <metadata
     id="metadata5">
    <rdf:RDF>
      <cc:Work
         rdf:about="">
        <dc:format>image/svg+xml</dc:format>
        <dc:type
           rdf:resource="http://purl.org/dc/dcmitype/StillImage" />
        <dc:title></dc:title>
      </cc:Work>
    </rdf:RDF>
  </metadata>
  <g
     inkscape:label="Layer 1"
     inkscape:groupmode="layer"
     id="layer1">
    <path
       style="fill:#ffffff;fill-opacity:1;stroke:none;stroke-width:0.919748px;stroke-linecap:butt;stroke-linejoin:miter;stroke-opacity:1"
       d="m 23.594977,50.980466 c 0,0 -2.371597,-14.684099 -5.070384,-21.55366 C 14.79256,19.927211 3.3735046,2.818948 3.3735046,2.818948 c 0,0 22.6549344,11.875972 27.4333184,17.956296 5.00373,6.367074 13.10488,31.79537 14.109673,32.259907 1.004791,0.464549 4.490907,0.532225 4.490907,0.532225 0,0 13.704372,-21.792648 19.521332,-26.981653 7.606928,-6.785745 55.358785,-26.77160378 58.567865,-26.58441833 2.40417,0.14023569 4.56041,3.16605163 4.59649,5.57404953 0.0552,3.6849454 -32.176123,39.5799778 -32.176123,39.5799778 0,0 0.415063,3.802713 -0.402798,5.131568 -0.81785,1.328855 -7.458156,5.343695 -7.458156,5.343695 0,0 0.365052,4.381523 -0.740521,6.015459 -1.10557,1.633939 -6.550343,3.536207 -6.550343,3.536207 0,0 -0.824618,5.472916 -1.569371,6.16524 -0.744752,0.692323 -6.314606,2.503515 -6.314606,2.503515 0,0 -0.811867,3.333524 -1.917207,4.554977 -2.937216,3.245757 -11.536592,6.274297 -11.536592,6.274297 l 38.828827,39.68652 c 0,0 -2.397765,8.32701 -3.06501,8.88848 -0.435968,0.36686 -11.929187,2.00788 -11.929187,2.00788 0,0 -4.337016,-7.35709 -5.712142,-6.89163 -1.240037,0.41972 -1.044204,5.27705 -1.044204,5.27705 0,0 -0.689421,1.27796 -2.102071,1.70106 -0.879132,0.26329 -9.601514,0 -9.601514,0 0,0 -13.426183,-9.15084 -14.59968,-11.15878 -0.485293,-0.83036 -2.814372,-21.84041 -2.814372,-21.84041 0,0 -21.908512,-3.110905 -29.140767,-10.475815 -8.72582,-8.885871 -7.772569,-22.689847 -7.772569,-22.689847 L 9.0596795,72.744927 7.1222952,57.146324 c 0,0 0.7409075,-6.415325 6.0852198,-7.978419 4.182123,-1.223177 10.387462,1.812561 10.387462,1.812561 z"
       id="path1434"
       sodipodi:nodetypes="cscsscsssczczczcsccscscscscscccsc" />
  </g>
</svg>
