<?xml version="1.0" encoding="UTF-8" standalone="no"?>
<svg
   xmlns:dc="http://purl.org/dc/elements/1.1/"
   xmlns:cc="http://creativecommons.org/ns#"
   xmlns:rdf="http://www.w3.org/1999/02/22-rdf-syntax-ns#"
   xmlns:svg="http://www.w3.org/2000/svg"
   xmlns="http://www.w3.org/2000/svg"
   xmlns:sodipodi="http://sodipodi.sourceforge.net/DTD/sodipodi-0.dtd"
   xmlns:inkscape="http://www.inkscape.org/namespaces/inkscape"
   width="512"
   height="512"
   viewBox="0 0 135.46667 135.46667"
   version="1.1"
   id="svg8"
   inkscape:version="1.0.2 (e86c870879, 2021-01-15)"
   sodipodi:docname="skull.svg">
  <defs
     id="defs2" />
  <sodipodi:namedview
     id="base"
     pagecolor="#000000"
     bordercolor="#666666"
     borderopacity="1.0"
     inkscape:pageopacity="0"
     inkscape:pageshadow="2"
     inkscape:zoom="0.98994949"
     inkscape:cx="360.89485"
     inkscape:cy="333.79467"
     inkscape:document-units="px"
     inkscape:current-layer="layer1"
     inkscape:document-rotation="0"
     showgrid="false"
     units="px"
     inkscape:pagecheckerboard="true"
     inkscape:window-width="1872"
     inkscape:window-height="1027"
     inkscape:window-x="1920"
     inkscape:window-y="24"
     inkscape:window-maximized="1" />
  <metadata
     id="metadata5">
    <rdf:RDF>
      <cc:Work
         rdf:about="">
        <dc:format>image/svg+xml</dc:format>
        <dc:type
           rdf:resource="http://purl.org/dc/dcmitype/StillImage" />
        <dc:title></dc:title>
      </cc:Work>
    </rdf:RDF>
  </metadata>
  <g
     inkscape:label="Layer 1"
     inkscape:groupmode="layer"
     id="layer1">
    <path
       id="path1474"
       style="fill:#ffffff;fill-opacity:1;stroke:none;stroke-width:0.941421px;stroke-linecap:butt;stroke-linejoin:miter;stroke-opacity:1"
       d="M 66.194331,2.4242269e-4 C 59.281828,-0.02679934 31.036638,2.1366434 21.524676,38.471609 c -1.202778,4.594492 2.969145,34.554799 1.976606,38.824393 -0.767004,3.299527 -5.944712,6.353957 -6.231393,8.025974 -1.420152,8.282801 6.169118,20.193724 7.367725,20.933734 2.157482,1.33203 12.106422,-0.008 14.759336,1.50223 1.617586,0.92104 3.99552,3.90174 3.99552,3.90174 -0.405894,7.06344 0.138172,10.11236 3.158908,15.31832 6.2803,8.90077 21.181959,8.48565 21.181959,8.48565 0,0 14.90166,0.41512 21.181959,-8.48565 3.020745,-5.20596 3.564799,-8.25488 3.158908,-15.31832 0,0 2.377933,-2.9807 3.995522,-3.90174 2.652913,-1.5104 12.601864,-0.17019 14.759334,-1.50223 1.19861,-0.74001 8.78787,-12.650933 7.36772,-20.933734 -0.28668,-1.672017 -5.46439,-4.726447 -6.23139,-8.025974 -0.99253,-4.269594 3.17938,-34.229901 1.97661,-38.824393 C 104.43004,2.1366434 76.184836,-0.02679578 69.272343,2.4242269e-4 68.284828,0.00415634 67.733337,0.05357869 67.733337,0.05357869 c 0,0 -0.551502,-0.04945793 -1.539006,-0.0533362673 z M 42.381177,60.817466 c 12.879657,0.0886 14.818156,1.909274 16.224796,4.41291 4.12667,7.34495 3.558455,14.24012 3.015482,16.993381 C 60.759699,86.5935 46.31509,96.843446 42.844534,97.071348 40.593467,97.219155 29.203965,94.871262 28.877678,78.983943 28.551391,63.096626 39.40288,60.796832 42.381177,60.817466 Z m 50.704322,0 c 2.978291,-0.02063 13.829771,2.27916 13.503491,18.166477 C 106.26271,94.871262 94.873205,97.219148 92.622138,97.071348 89.151583,96.843454 74.706973,86.593492 73.845216,82.223757 73.302243,79.470496 72.734039,72.575326 76.860698,65.230376 78.267342,62.72674 80.20584,60.906063 93.085499,60.817466 Z M 67.733337,87.556019 c 0,0 0.378734,0.0052 0.959804,0.237187 0.581074,0.23238 1.36426,0.691442 2.173356,1.597837 0.655453,0.734304 1.104032,1.830448 1.704487,3.328064 0.600466,1.497631 1.35366,3.397893 2.620171,5.740463 0.792583,1.466006 1.656165,2.42101 2.331486,3.55791 0.337666,0.56845 0.627916,1.18109 0.838447,1.92697 0.210534,0.74588 0.342256,1.62484 0.360395,2.7213 0.01388,0.83534 -0.04761,1.57044 -0.167338,2.21748 -0.119731,0.64702 -0.298776,1.20511 -0.518518,1.68793 -0.439472,0.96565 -1.044193,1.62793 -1.68242,2.08143 -0.638228,0.4535 -1.308764,0.69865 -1.877324,0.83294 -0.56857,0.13417 -1.036382,0.15766 -1.26687,0.16548 -0.636192,0.0221 -1.296157,-0.18875 -1.928809,-0.51667 -0.632664,-0.32792 -1.237876,-0.77268 -1.763329,-1.22091 -1.050899,-0.89641 -1.783549,-1.80377 -1.783549,-1.80377 0,0 -0.732653,0.90736 -1.783549,1.80377 -0.525456,0.44823 -1.130664,0.893 -1.763327,1.22091 -0.632653,0.32791 -1.292617,0.53865 -1.92881,0.51667 -0.230495,-0.008 -0.698299,-0.0313 -1.26687,-0.16548 -0.568563,-0.13429 -1.239099,-0.37944 -1.877323,-0.83294 -0.638228,-0.4535 -1.242949,-1.11578 -1.682424,-2.08143 -0.219749,-0.48282 -0.398794,-1.04091 -0.518514,-1.68793 -0.119731,-0.64705 -0.18118,-1.38214 -0.167339,-2.21748 0.01814,-1.09646 0.149868,-1.97542 0.360395,-2.7213 0.210535,-0.74588 0.500795,-1.35852 0.838447,-1.92697 0.675318,-1.1369 1.538903,-2.091904 2.331483,-3.55791 1.266521,-2.34257 2.019705,-4.242832 2.62017,-5.740463 0.600459,-1.497616 1.049035,-2.59376 1.704491,-3.328064 0.809103,-0.906395 1.592279,-1.365465 2.173352,-1.597837 0.581074,-0.232387 0.959808,-0.237187 0.959808,-0.237187 z" />
  </g>
</svg>
