<?xml version="1.0" encoding="UTF-8" standalone="no"?>
<svg
   xmlns:dc="http://purl.org/dc/elements/1.1/"
   xmlns:cc="http://creativecommons.org/ns#"
   xmlns:rdf="http://www.w3.org/1999/02/22-rdf-syntax-ns#"
   xmlns:svg="http://www.w3.org/2000/svg"
   xmlns="http://www.w3.org/2000/svg"
   xmlns:sodipodi="http://sodipodi.sourceforge.net/DTD/sodipodi-0.dtd"
   xmlns:inkscape="http://www.inkscape.org/namespaces/inkscape"
   width="512"
   height="512"
   viewBox="0 0 135.46667 135.46667"
   version="1.1"
   id="svg8"
   inkscape:version="1.0.2 (e86c870879, 2021-01-15)"
   sodipodi:docname="icon-not-hitler-inkscape.svg">
  <defs
     id="defs2">
    <rect
       x="20.363479"
       y="23.369835"
       width="67.942924"
       height="83.539318"
       id="rect2032" />
  </defs>
  <sodipodi:namedview
     id="base"
     pagecolor="#000000"
     bordercolor="#666666"
     borderopacity="1.0"
     inkscape:pageopacity="0"
     inkscape:pageshadow="2"
     inkscape:zoom="1.4142136"
     inkscape:cx="271.46642"
     inkscape:cy="281.5146"
     inkscape:document-units="px"
     inkscape:current-layer="layer1"
     inkscape:document-rotation="0"
     showgrid="false"
     units="px"
     inkscape:pagecheckerboard="true"
     inkscape:window-width="1872"
     inkscape:window-height="1027"
     inkscape:window-x="1920"
     inkscape:window-y="24"
     inkscape:window-maximized="1" />
  <metadata
     id="metadata5">
    <rdf:RDF>
      <cc:Work
         rdf:about="">
        <dc:format>image/svg+xml</dc:format>
        <dc:type
           rdf:resource="http://purl.org/dc/dcmitype/StillImage" />
        <dc:title></dc:title>
      </cc:Work>
    </rdf:RDF>
  </metadata>
  <g
     inkscape:label="Layer 1"
     inkscape:groupmode="layer"
     id="layer1">
    <path
       id="path1998"
       style="opacity:0.999;fill:#ebbf00;fill-opacity:1;stroke:none;stroke-width:6.90898;stroke-linecap:round;paint-order:stroke fill markers"
       d="M 256 0 A 256.00001 256.00001 0 0 0 0 256 A 256.00001 256.00001 0 0 0 256 512 A 256.00001 256.00001 0 0 0 512 256 A 256.00001 256.00001 0 0 0 256 0 z M 255.64453 75 A 180.99998 181 0 0 1 256 75 A 180.99998 181 0 0 1 354.69336 104.27344 L 104.27344 354.69336 A 180.99998 181 0 0 1 75 256 A 180.99998 181 0 0 1 255.64453 75 z M 407.72656 157.30664 A 180.99998 181 0 0 1 437 256 A 180.99998 181 0 0 1 256 437 A 180.99998 181 0 0 1 157.30664 407.72656 L 407.72656 157.30664 z "
       transform="scale(0.26458334)" />
    <path
       d="M 78.770028,107.42084 V 71.746678 H 63.385547 V 107.42084 H 48.001065 V 59.706649 q 0,-9.475951 -1.337781,-13.154846 Q 45.436985,42.761425 41.31216,37.4103 l 13.37781,-9.364467 q 3.567415,2.341116 6.131497,8.695576 2.56408,6.242978 2.56408,15.161517 v 6.465941 H 78.770028 V 29.383612 H 94.15451 v 78.037228 z"
       style="font-style:normal;font-variant:normal;font-weight:normal;font-stretch:normal;font-size:50.8px;line-height:1.25;font-family:'Germania One';-inkscape-font-specification:'Germania One';letter-spacing:0px;word-spacing:0px;white-space:pre;fill:#ffffff;fill-opacity:1;stroke:none;stroke-width:2.19452"
       id="path2036" />
  </g>
</svg>
