<?xml version="1.0" encoding="UTF-8" standalone="no"?>
<svg
   xmlns:dc="http://purl.org/dc/elements/1.1/"
   xmlns:cc="http://creativecommons.org/ns#"
   xmlns:rdf="http://www.w3.org/1999/02/22-rdf-syntax-ns#"
   xmlns:svg="http://www.w3.org/2000/svg"
   xmlns="http://www.w3.org/2000/svg"
   xmlns:sodipodi="http://sodipodi.sourceforge.net/DTD/sodipodi-0.dtd"
   xmlns:inkscape="http://www.inkscape.org/namespaces/inkscape"
   width="512"
   height="512"
   viewBox="0 0 135.46667 135.46667"
   version="1.1"
   id="svg8"
   inkscape:version="1.0.2 (e86c870879, 2021-01-15)"
   sodipodi:docname="role-communist-inkscape.svg">
  <defs
     id="defs2">
    <rect
       x="32.589983"
       y="31.629752"
       width="78.073633"
       height="86.829818"
       id="rect1544" />
    <rect
       x="40.148067"
       y="27.312979"
       width="72.602759"
       height="65.192093"
       id="rect1499" />
    <rect
       x="0.44716751"
       y="5.2084199"
       width="94.69126"
       height="103.67591"
       id="rect1487" />
    <rect
       x="17.83724"
       y="24.244376"
       width="89.205775"
       height="82.43633"
       id="rect1424" />
  </defs>
  <sodipodi:namedview
     id="base"
     pagecolor="#000000"
     bordercolor="#666666"
     borderopacity="1.0"
     inkscape:pageopacity="0"
     inkscape:pageshadow="2"
     inkscape:zoom="0.98994949"
     inkscape:cx="387.21046"
     inkscape:cy="323.69528"
     inkscape:document-units="px"
     inkscape:current-layer="layer1"
     inkscape:document-rotation="0"
     showgrid="false"
     units="px"
     inkscape:pagecheckerboard="true"
     inkscape:window-width="1872"
     inkscape:window-height="1027"
     inkscape:window-x="1920"
     inkscape:window-y="24"
     inkscape:window-maximized="1" />
  <metadata
     id="metadata5">
    <rdf:RDF>
      <cc:Work
         rdf:about="">
        <dc:format>image/svg+xml</dc:format>
        <dc:type
           rdf:resource="http://purl.org/dc/dcmitype/StillImage" />
        <dc:title></dc:title>
      </cc:Work>
    </rdf:RDF>
  </metadata>
  <g
     inkscape:label="Layer 1"
     inkscape:groupmode="layer"
     id="layer1">
    <circle
       style="opacity:0.999;fill:#8b0000;stroke-width:1.74485;stroke-linecap:round;paint-order:stroke fill markers;fill-opacity:1"
       id="path1420"
       cx="67.733337"
       cy="67.733337"
       r="67.733337" />
    <text
       xml:space="preserve"
       id="text1485"
       style="fill:black;fill-opacity:1;stroke:none;font-family:sans-serif;font-style:normal;font-weight:normal;font-size:10.58333359px;line-height:1.25;letter-spacing:0px;word-spacing:0px;white-space:pre;shape-inside:url(#rect1487);" />
    <g
       aria-label="C"
       transform="matrix(2.1581491,0,0,2.1581491,-28.309574,-61.885229)"
       id="text1542"
       style="font-style:normal;font-weight:normal;font-size:50.8px;line-height:1.25;font-family:sans-serif;letter-spacing:0px;word-spacing:0px;white-space:pre;shape-inside:url(#rect1544);fill:#ffffff;fill-opacity:1;stroke:none">
      <path
         d="m 33.859844,62.44766 v -4.7752 q 0,-6.35 1.016,-8.128 1.016,-1.778 4.318,-4.826 3.3528,-3.048 4.9784,-3.048 2.794,0 6.400799,3.2512 3.6068,3.2004 4.572,7.0612 l -5.6388,3.9116 q -0.812799,-2.7432 -2.590799,-5.0292 -1.778,-2.3368 -2.4892,-2.3368 -1.27,0 -2.8956,2.4892 -0.6604,0.9652 -0.6604,6.6548 v 4.7752 q 0,5.842 0.6604,6.6548 1.6256,2.4892 2.8956,2.4892 0.7112,0 2.4892,-1.9812 1.778,-2.032 2.590799,-4.4704 l 5.6388,3.9624 q -0.9652,3.5052 -4.572,6.4516 -3.606799,2.8956 -6.400799,2.8956 -1.6256,0 -4.9784,-3.048 -3.302,-3.048 -4.318,-4.826 -1.016,-1.778 -1.016,-8.128 z"
         style="font-style:normal;font-variant:normal;font-weight:normal;font-stretch:normal;font-size:50.8px;font-family:'Germania One';-inkscape-font-specification:'Germania One';fill:#ffffff;fill-opacity:1"
         id="path1584" />
    </g>
  </g>
</svg>
