<?xml version="1.0" encoding="UTF-8" standalone="no"?>
<svg
   xmlns:dc="http://purl.org/dc/elements/1.1/"
   xmlns:cc="http://creativecommons.org/ns#"
   xmlns:rdf="http://www.w3.org/1999/02/22-rdf-syntax-ns#"
   xmlns:svg="http://www.w3.org/2000/svg"
   xmlns="http://www.w3.org/2000/svg"
   xmlns:sodipodi="http://sodipodi.sourceforge.net/DTD/sodipodi-0.dtd"
   xmlns:inkscape="http://www.inkscape.org/namespaces/inkscape"
   width="512"
   height="512"
   viewBox="0 0 135.46667 135.46667"
   version="1.1"
   id="svg8"
   inkscape:version="1.0.2 (e86c870879, 2021-01-15)"
   sodipodi:docname="role-stalin-inkscape.svg">
  <defs
     id="defs2">
    <rect
       x="28.108586"
       y="33.156732"
       width="67.570841"
       height="80.020269"
       id="rect1665" />
    <rect
       x="32.589983"
       y="31.629752"
       width="78.073633"
       height="86.829818"
       id="rect1544" />
    <rect
       x="40.148067"
       y="27.312979"
       width="72.602759"
       height="65.192093"
       id="rect1499" />
    <rect
       x="0.44716751"
       y="5.2084199"
       width="94.69126"
       height="103.67591"
       id="rect1487" />
    <rect
       x="17.83724"
       y="24.244376"
       width="89.205775"
       height="82.43633"
       id="rect1424" />
  </defs>
  <sodipodi:namedview
     id="base"
     pagecolor="#000000"
     bordercolor="#666666"
     borderopacity="1.0"
     inkscape:pageopacity="0"
     inkscape:pageshadow="2"
     inkscape:zoom="0.98994949"
     inkscape:cx="387.21046"
     inkscape:cy="323.69528"
     inkscape:document-units="px"
     inkscape:current-layer="layer1"
     inkscape:document-rotation="0"
     showgrid="false"
     units="px"
     inkscape:pagecheckerboard="true"
     inkscape:window-width="1872"
     inkscape:window-height="1027"
     inkscape:window-x="1920"
     inkscape:window-y="24"
     inkscape:window-maximized="1" />
  <metadata
     id="metadata5">
    <rdf:RDF>
      <cc:Work
         rdf:about="">
        <dc:format>image/svg+xml</dc:format>
        <dc:type
           rdf:resource="http://purl.org/dc/dcmitype/StillImage" />
        <dc:title></dc:title>
      </cc:Work>
    </rdf:RDF>
  </metadata>
  <g
     inkscape:label="Layer 1"
     inkscape:groupmode="layer"
     id="layer1">
    <circle
       style="opacity:0.999;fill:#660000;stroke-width:1.74485;stroke-linecap:round;paint-order:stroke fill markers;fill-opacity:1"
       id="path1420"
       cx="67.733337"
       cy="67.733337"
       r="67.733337" />
    <text
       xml:space="preserve"
       id="text1485"
       style="fill:black;fill-opacity:1;stroke:none;font-family:sans-serif;font-style:normal;font-weight:normal;font-size:10.58333359px;line-height:1.25;letter-spacing:0px;word-spacing:0px;white-space:pre;shape-inside:url(#rect1487);" />
    <g
       aria-label="S"
       transform="matrix(2.1581493,0,0,2.1581493,-18.365977,-65.181477)"
       id="text1663"
       style="font-style:normal;font-weight:normal;font-size:50.8px;line-height:1.25;font-family:sans-serif;letter-spacing:0px;word-spacing:0px;white-space:pre;shape-inside:url(#rect1665);fill:#ffffff;fill-opacity:1;stroke:none">
      <path
         d="m 49.851775,65.041804 q 0.5588,0.9144 0.5588,3.6576 0,2.6924 -1.1176,4.572 -1.016,1.4732 -4.318,4.1148 -3.302,2.590799 -4.8768,2.590799 -2.794,0 -6.4008,-2.895599 -3.6068,-2.9464 -4.572,-6.4516 l 5.6388,-3.8608 q 0.8128,2.3876 2.5908,4.3688 1.778,1.9812 2.4892,1.9812 0.762,0 1.5748,-0.4572 0.8636,-0.508 1.3208,-1.016 0.6604,-0.8128 0.6604,-2.54 0,-1.7272 -0.8128,-2.1336 -1.016,-0.8636 -3.9624,-2.286 -2.8956,-1.4224 -5.3848,-3.048 -2.4892,-1.6764 -3.2004,-3.2512 -0.6604,-1.5748 -0.6604,-4.064 0,-2.54 1.1176,-4.4196 1.016,-1.4732 4.318,-4.064 3.302,-2.6416 4.8768,-2.6416 2.794,0 6.4008,2.9464 3.6068,2.8956 4.572,6.4008 l -5.6388,3.9116 q -0.8128,-2.3876 -2.5908,-4.3688 -1.778,-2.032 -2.54,-2.032 -0.7112,0 -1.5748,0.4572 -0.8636,0.4572 -1.4224,1.1684 -0.508,0.6604 -0.508,2.3368 0,1.6256 1.016,2.1844 0.8128,0.7112 3.7084,2.2352 7.4168,4.064 8.7376,6.604 z"
         style="font-style:normal;font-variant:normal;font-weight:normal;font-stretch:normal;font-size:50.8px;font-family:'Germania One';-inkscape-font-specification:'Germania One';fill:#ffffff;fill-opacity:1"
         id="path1705" />
    </g>
  </g>
</svg>
